<?xml version="1.0" encoding="UTF-8"?>
<!--Generator: Apple Native CoreSVG 175-->
<!DOCTYPE svg
PUBLIC "-//W3C//DTD SVG 1.1//EN"
       "http://www.w3.org/Graphics/SVG/1.1/DTD/svg11.dtd">
<svg version="1.1" xmlns="http://www.w3.org/2000/svg" xmlns:xlink="http://www.w3.org/1999/xlink" width="3300" height="2200">
 <!--glyph: "uni10014C.medium", point size: 100.0, font version: "17.0d12e1", template writer version: "65.1"-->
 <g id="Notes">
  <rect height="2200" id="artboard" style="fill:white;opacity:1" width="3300" x="0" y="0"/>
  <line style="fill:none;stroke:black;opacity:1;stroke-width:0.5;" x1="263" x2="3036" y1="292" y2="292"/>
  <text style="stroke:none;fill:black;font-family:sans-serif;font-size:13;font-weight:bold;" transform="matrix(1 0 0 1 263 322)">Weight/Scale Variations</text>
  <text style="stroke:none;fill:black;font-family:sans-serif;font-size:13;text-anchor:middle;" transform="matrix(1 0 0 1 559.711 322)">Ultralight</text>
  <text style="stroke:none;fill:black;font-family:sans-serif;font-size:13;text-anchor:middle;" transform="matrix(1 0 0 1 856.422 322)">Thin</text>
  <text style="stroke:none;fill:black;font-family:sans-serif;font-size:13;text-anchor:middle;" transform="matrix(1 0 0 1 1153.13 322)">Light</text>
  <text style="stroke:none;fill:black;font-family:sans-serif;font-size:13;text-anchor:middle;" transform="matrix(1 0 0 1 1449.84 322)">Regular</text>
  <text style="stroke:none;fill:black;font-family:sans-serif;font-size:13;text-anchor:middle;" transform="matrix(1 0 0 1 1746.56 322)">Medium</text>
  <text style="stroke:none;fill:black;font-family:sans-serif;font-size:13;text-anchor:middle;" transform="matrix(1 0 0 1 2043.27 322)">Semibold</text>
  <text style="stroke:none;fill:black;font-family:sans-serif;font-size:13;text-anchor:middle;" transform="matrix(1 0 0 1 2339.98 322)">Bold</text>
  <text style="stroke:none;fill:black;font-family:sans-serif;font-size:13;text-anchor:middle;" transform="matrix(1 0 0 1 2636.69 322)">Heavy</text>
  <text style="stroke:none;fill:black;font-family:sans-serif;font-size:13;text-anchor:middle;" transform="matrix(1 0 0 1 2933.4 322)">Black</text>
  <line style="fill:none;stroke:black;opacity:1;stroke-width:0.5;" x1="263" x2="3036" y1="1903" y2="1903"/>
  <g transform="matrix(1 0 0 1 263 1933)">
   <path d="M9.24805 0.830078Q10.8691 0.830078 12.2949 0.214844Q13.7207-0.400391 14.8096-1.49414Q15.8984-2.58789 16.5186-4.01367Q17.1387-5.43945 17.1387-7.05078Q17.1387-8.66211 16.5186-10.0879Q15.8984-11.5137 14.8047-12.6074Q13.7109-13.7012 12.2852-14.3164Q10.8594-14.9316 9.23828-14.9316Q7.62695-14.9316 6.20117-14.3164Q4.77539-13.7012 3.69141-12.6074Q2.60742-11.5137 1.9873-10.0879Q1.36719-8.66211 1.36719-7.05078Q1.36719-5.43945 1.9873-4.01367Q2.60742-2.58789 3.69629-1.49414Q4.78516-0.400391 6.21094 0.214844Q7.63672 0.830078 9.24805 0.830078ZM9.24805-0.654297Q7.91992-0.654297 6.7627-1.14746Q5.60547-1.64062 4.73145-2.51953Q3.85742-3.39844 3.36426-4.56055Q2.87109-5.72266 2.87109-7.05078Q2.87109-8.37891 3.35938-9.54102Q3.84766-10.7031 4.72168-11.582Q5.5957-12.4609 6.75293-12.9541Q7.91016-13.4473 9.23828-13.4473Q10.5762-13.4473 11.7334-12.9541Q12.8906-12.4609 13.7695-11.582Q14.6484-10.7031 15.1465-9.54102Q15.6445-8.37891 15.6445-7.05078Q15.6445-5.72266 15.1514-4.56055Q14.6582-3.39844 13.7842-2.51953Q12.9102-1.64062 11.748-1.14746Q10.5859-0.654297 9.24805-0.654297ZM5.6543-7.05078Q5.6543-6.72852 5.85938-6.52832Q6.06445-6.32812 6.40625-6.32812L8.51562-6.32812L8.51562-4.20898Q8.51562-3.88672 8.71094-3.67676Q8.90625-3.4668 9.23828-3.4668Q9.56055-3.4668 9.77051-3.67676Q9.98047-3.88672 9.98047-4.20898L9.98047-6.32812L12.0898-6.32812Q12.4219-6.32812 12.627-6.52832Q12.832-6.72852 12.832-7.05078Q12.832-7.38281 12.627-7.58789Q12.4219-7.79297 12.0898-7.79297L9.98047-7.79297L9.98047-9.90234Q9.98047-10.2344 9.77051-10.4443Q9.56055-10.6543 9.23828-10.6543Q8.90625-10.6543 8.71094-10.4443Q8.51562-10.2344 8.51562-9.90234L8.51562-7.79297L6.40625-7.79297Q6.06445-7.79297 5.85938-7.58789Q5.6543-7.38281 5.6543-7.05078Z"/>
  </g>
  <g transform="matrix(1 0 0 1 281.867 1933)">
   <path d="M11.709 2.91016Q13.75 2.91016 15.5518 2.12891Q17.3535 1.34766 18.7305-0.0292969Q20.1074-1.40625 20.8887-3.20801Q21.6699-5.00977 21.6699-7.05078Q21.6699-9.0918 20.8887-10.8936Q20.1074-12.6953 18.7305-14.0723Q17.3535-15.4492 15.5469-16.2305Q13.7402-17.0117 11.6992-17.0117Q9.6582-17.0117 7.85645-16.2305Q6.05469-15.4492 4.68262-14.0723Q3.31055-12.6953 2.5293-10.8936Q1.74805-9.0918 1.74805-7.05078Q1.74805-5.00977 2.5293-3.20801Q3.31055-1.40625 4.6875-0.0292969Q6.06445 1.34766 7.86621 2.12891Q9.66797 2.91016 11.709 2.91016ZM11.709 1.25Q9.98047 1.25 8.47656 0.605469Q6.97266-0.0390625 5.83496-1.17676Q4.69727-2.31445 4.05762-3.81836Q3.41797-5.32227 3.41797-7.05078Q3.41797-8.7793 4.05762-10.2832Q4.69727-11.7871 5.83008-12.9297Q6.96289-14.0723 8.4668-14.7119Q9.9707-15.3516 11.6992-15.3516Q13.4277-15.3516 14.9316-14.7119Q16.4355-14.0723 17.5781-12.9297Q18.7207-11.7871 19.3652-10.2832Q20.0098-8.7793 20.0098-7.05078Q20.0098-5.32227 19.3701-3.81836Q18.7305-2.31445 17.5928-1.17676Q16.4551-0.0390625 14.9463 0.605469Q13.4375 1.25 11.709 1.25ZM7.17773-7.05078Q7.17773-6.69922 7.41211-6.47461Q7.64648-6.25 8.01758-6.25L10.8887-6.25L10.8887-3.36914Q10.8887-2.99805 11.1133-2.76855Q11.3379-2.53906 11.6895-2.53906Q12.0605-2.53906 12.29-2.76855Q12.5195-2.99805 12.5195-3.36914L12.5195-6.25L15.4004-6.25Q15.7715-6.25 16.001-6.47461Q16.2305-6.69922 16.2305-7.05078Q16.2305-7.42188 16.001-7.65137Q15.7715-7.88086 15.4004-7.88086L12.5195-7.88086L12.5195-10.752Q12.5195-11.1328 12.29-11.3623Q12.0605-11.5918 11.6895-11.5918Q11.3379-11.5918 11.1133-11.3574Q10.8887-11.123 10.8887-10.752L10.8887-7.88086L8.01758-7.88086Q7.63672-7.88086 7.40723-7.65137Q7.17773-7.42188 7.17773-7.05078Z"/>
  </g>
  <g transform="matrix(1 0 0 1 305.646 1933)">
   <path d="M14.9707 5.66406Q17.0605 5.66406 18.96 5.01465Q20.8594 4.36523 22.4512 3.19336Q24.043 2.02148 25.2197 0.429688Q26.3965-1.16211 27.0459-3.06641Q27.6953-4.9707 27.6953-7.05078Q27.6953-9.14062 27.0459-11.04Q26.3965-12.9395 25.2197-14.5312Q24.043-16.123 22.4512-17.2998Q20.8594-18.4766 18.9551-19.126Q17.0508-19.7754 14.9609-19.7754Q12.8711-19.7754 10.9717-19.126Q9.07227-18.4766 7.48535-17.2998Q5.89844-16.123 4.72168-14.5312Q3.54492-12.9395 2.90039-11.04Q2.25586-9.14062 2.25586-7.05078Q2.25586-4.9707 2.90527-3.06641Q3.55469-1.16211 4.72656 0.429688Q5.89844 2.02148 7.49023 3.19336Q9.08203 4.36523 10.9814 5.01465Q12.8809 5.66406 14.9707 5.66406ZM14.9707 3.84766Q13.1641 3.84766 11.5283 3.2959Q9.89258 2.74414 8.53516 1.74805Q7.17773 0.751953 6.17676-0.610352Q5.17578-1.97266 4.62891-3.6084Q4.08203-5.24414 4.08203-7.05078Q4.08203-8.86719 4.62891-10.5029Q5.17578-12.1387 6.17188-13.501Q7.16797-14.8633 8.52539-15.8594Q9.88281-16.8555 11.5186-17.4023Q13.1543-17.9492 14.9609-17.9492Q16.7773-17.9492 18.4131-17.4023Q20.0488-16.8555 21.4111-15.8594Q22.7734-14.8633 23.7695-13.501Q24.7656-12.1387 25.3174-10.5029Q25.8691-8.86719 25.8691-7.05078Q25.8789-5.24414 25.332-3.6084Q24.7852-1.97266 23.7842-0.610352Q22.7832 0.751953 21.4209 1.74805Q20.0586 2.74414 18.4229 3.2959Q16.7871 3.84766 14.9707 3.84766ZM9.19922-7.05078Q9.19922-6.66992 9.45801-6.4209Q9.7168-6.17188 10.1172-6.17188L14.0625-6.17188L14.0625-2.2168Q14.0625-1.81641 14.3115-1.55762Q14.5605-1.29883 14.9512-1.29883Q15.3516-1.29883 15.6104-1.55273Q15.8691-1.80664 15.8691-2.2168L15.8691-6.17188L19.8242-6.17188Q20.2246-6.17188 20.4785-6.4209Q20.7324-6.66992 20.7324-7.05078Q20.7324-7.46094 20.4785-7.71484Q20.2246-7.96875 19.8242-7.96875L15.8691-7.96875L15.8691-11.9141Q15.8691-12.3242 15.6104-12.583Q15.3516-12.8418 14.9512-12.8418Q14.5605-12.8418 14.3115-12.583Q14.0625-12.3242 14.0625-11.9141L14.0625-7.96875L10.1172-7.96875Q9.70703-7.96875 9.45312-7.71484Q9.19922-7.46094 9.19922-7.05078Z"/>
  </g>
  <text style="stroke:none;fill:black;font-family:sans-serif;font-size:13;font-weight:bold;" transform="matrix(1 0 0 1 263 1953)">Design Variations</text>
  <text style="stroke:none;fill:black;font-family:sans-serif;font-size:13;" transform="matrix(1 0 0 1 263 1971)">Symbols are supported in up to nine weights and three scales.</text>
  <text style="stroke:none;fill:black;font-family:sans-serif;font-size:13;" transform="matrix(1 0 0 1 263 1989)">For optimal layout with text and other symbols, vertically align</text>
  <text style="stroke:none;fill:black;font-family:sans-serif;font-size:13;" transform="matrix(1 0 0 1 263 2007)">symbols with the adjacent text.</text>
  <line style="fill:none;stroke:#00AEEF;stroke-width:0.5;opacity:1.0;" x1="776" x2="776" y1="1919" y2="1933"/>
  <g transform="matrix(1 0 0 1 776 1933)">
   <path d="M3.31055 0.15625Q3.70117 0.15625 3.91602-0.00976562Q4.13086-0.175781 4.26758-0.585938L5.52734-4.0332L11.2891-4.0332L12.5488-0.585938Q12.6855-0.175781 12.9004-0.00976562Q13.1152 0.15625 13.4961 0.15625Q13.8867 0.15625 14.1162-0.0585938Q14.3457-0.273438 14.3457-0.644531Q14.3457-0.869141 14.2383-1.17188L9.6582-13.3691Q9.48242-13.8184 9.17969-14.043Q8.87695-14.2676 8.4082-14.2676Q7.5-14.2676 7.17773-13.3789L2.59766-1.16211Q2.49023-0.859375 2.49023-0.634766Q2.49023-0.263672 2.70996-0.0537109Q2.92969 0.15625 3.31055 0.15625ZM6.00586-5.51758L8.37891-12.0898L8.42773-12.0898L10.8008-5.51758Z"/>
  </g>
  <line style="fill:none;stroke:#00AEEF;stroke-width:0.5;opacity:1.0;" x1="793.197" x2="793.197" y1="1919" y2="1933"/>
  <text style="stroke:none;fill:black;font-family:sans-serif;font-size:13;font-weight:bold;" transform="matrix(1 0 0 1 776 1953)">Margins</text>
  <text style="stroke:none;fill:black;font-family:sans-serif;font-size:13;" transform="matrix(1 0 0 1 776 1971)">Leading and trailing margins on the left and right side of each symbol</text>
  <text style="stroke:none;fill:black;font-family:sans-serif;font-size:13;" transform="matrix(1 0 0 1 776 1989)">can be adjusted by modifying the x-location of the margin guidelines.</text>
  <text style="stroke:none;fill:black;font-family:sans-serif;font-size:13;" transform="matrix(1 0 0 1 776 2007)">Modifications are automatically applied proportionally to all</text>
  <text style="stroke:none;fill:black;font-family:sans-serif;font-size:13;" transform="matrix(1 0 0 1 776 2025)">scales and weights.</text>
  <g transform="matrix(1 0 0 1 1289 1933)">
   <path d="M2.8418 1.86523L4.54102 3.57422Q5.18555 4.22852 5.90332 4.17969Q6.62109 4.13086 7.31445 3.35938L18.0078-8.42773L17.041-9.4043L6.42578 2.27539Q6.16211 2.57812 5.89355 2.61719Q5.625 2.65625 5.27344 2.30469L4.10156 1.14258Q3.75 0.791016 3.79395 0.522461Q3.83789 0.253906 4.14062-0.0195312L15.6152-10.8203L14.6387-11.7871L3.04688-0.898438Q2.30469-0.214844 2.25098 0.498047Q2.19727 1.21094 2.8418 1.86523ZM9.25781-16.3281Q8.94531-16.0254 8.90625-15.6348Q8.86719-15.2441 9.04297-14.9512Q9.21875-14.6777 9.55566-14.541Q9.89258-14.4043 10.3809-14.5215Q11.4746-14.7754 12.5977-14.7314Q13.7207-14.6875 14.7949-13.9844L14.209-12.5293Q13.9551-11.9043 14.0674-11.4404Q14.1797-10.9766 14.5801-10.5664L16.875-8.25195Q17.2363-7.88086 17.5781-7.82227Q17.9199-7.76367 18.3398-7.8418L19.4043-8.03711L20.0684-7.36328L20.0293-6.80664Q20-6.43555 20.1221-6.12305Q20.2441-5.81055 20.6055-5.44922L21.3672-4.70703Q21.7285-4.3457 22.1533-4.33105Q22.5781-4.31641 22.9297-4.66797L25.8398-7.58789Q26.1914-7.93945 26.1816-8.35449Q26.1719-8.76953 25.8105-9.13086L25.0391-9.89258Q24.6875-10.2539 24.3799-10.3857Q24.0723-10.5176 23.7109-10.4883L23.1348-10.4395L22.4902-11.0742L22.7344-12.1973Q22.832-12.6172 22.6953-12.9834Q22.5586-13.3496 22.1191-13.7891L19.9219-15.9766Q18.6719-17.2168 17.2607-17.8369Q15.8496-18.457 14.4189-18.4814Q12.9883-18.5059 11.665-17.959Q10.3418-17.4121 9.25781-16.3281ZM10.752-15.957Q11.6602-16.6211 12.7002-16.9043Q13.7402-17.1875 14.8047-17.085Q15.8691-16.9824 16.8701-16.5137Q17.8711-16.0449 18.7012-15.2051L21.1328-12.793Q21.3086-12.6172 21.3525-12.4512Q21.3965-12.2852 21.3379-12.0312L21.0156-10.5469L22.5195-9.0625L23.5059-9.12109Q23.6914-9.13086 23.7891-9.09668Q23.8867-9.0625 24.0332-8.91602L24.6094-8.33984L22.168-5.89844L21.5918-6.47461Q21.4453-6.62109 21.4062-6.71875Q21.3672-6.81641 21.377-7.01172L21.4453-7.98828L19.9512-9.47266L18.4277-9.21875Q18.1836-9.16992 18.042-9.2041Q17.9004-9.23828 17.7148-9.41406L15.7129-11.416Q15.5176-11.5918 15.4932-11.7529Q15.4688-11.9141 15.5859-12.1875L16.4648-14.2773Q15.293-15.3711 13.8281-15.791Q12.3633-16.2109 10.8398-15.7617Q10.7227-15.7324 10.6885-15.8057Q10.6543-15.8789 10.752-15.957Z"/>
  </g>
  <text style="stroke:none;fill:black;font-family:sans-serif;font-size:13;font-weight:bold;" transform="matrix(1 0 0 1 1289 1953)">Exporting</text>
  <text style="stroke:none;fill:black;font-family:sans-serif;font-size:13;" transform="matrix(1 0 0 1 1289 1971)">Symbols should be outlined when exporting to ensure the</text>
  <text style="stroke:none;fill:black;font-family:sans-serif;font-size:13;" transform="matrix(1 0 0 1 1289 1989)">design is preserved when submitting to Xcode.</text>
  <text id="template-version" style="stroke:none;fill:black;font-family:sans-serif;font-size:13;text-anchor:end;" transform="matrix(1 0 0 1 3036 1933)">Template v.3.0</text>
  <text style="stroke:none;fill:black;font-family:sans-serif;font-size:13;text-anchor:end;" transform="matrix(1 0 0 1 3036 1951)">Requires Xcode 13 or greater</text>
  <text id="descriptive-name" style="stroke:none;fill:black;font-family:sans-serif;font-size:13;text-anchor:end;" transform="matrix(1 0 0 1 3036 1969)">Generated from arrow.2.squarepath</text>
  <text style="stroke:none;fill:black;font-family:sans-serif;font-size:13;text-anchor:end;" transform="matrix(1 0 0 1 3036 1987)">Typeset at 100 points</text>
  <text style="stroke:none;fill:black;font-family:sans-serif;font-size:13;" transform="matrix(1 0 0 1 263 726)">Small</text>
  <text style="stroke:none;fill:black;font-family:sans-serif;font-size:13;" transform="matrix(1 0 0 1 263 1156)">Medium</text>
  <text style="stroke:none;fill:black;font-family:sans-serif;font-size:13;" transform="matrix(1 0 0 1 263 1586)">Large</text>
 </g>
 <g id="Guides">
  <g id="H-reference" style="fill:#27AAE1;stroke:none;" transform="matrix(1 0 0 1 339 696)">
   <path d="M0.993347 0L3.6377 0L29.3282-67.1326L30.0301-67.1326L30.0301-70.459L28.1227-70.459ZM11.6882-24.4797L46.9818-24.4797L46.2311-26.7288L12.4382-26.7288ZM55.1193 0L57.7637 0L30.6381-70.459L29.4327-70.459L29.4327-67.1326Z"/>
  </g>
  <line id="Baseline-S" style="fill:none;stroke:#27AAE1;opacity:1;stroke-width:0.5;" x1="263" x2="3036" y1="696" y2="696"/>
  <line id="Capline-S" style="fill:none;stroke:#27AAE1;opacity:1;stroke-width:0.5;" x1="263" x2="3036" y1="625.541" y2="625.541"/>
  <g id="H-reference" style="fill:#27AAE1;stroke:none;" transform="matrix(1 0 0 1 339 1126)">
   <path d="M0.993347 0L3.6377 0L29.3282-67.1326L30.0301-67.1326L30.0301-70.459L28.1227-70.459ZM11.6882-24.4797L46.9818-24.4797L46.2311-26.7288L12.4382-26.7288ZM55.1193 0L57.7637 0L30.6381-70.459L29.4327-70.459L29.4327-67.1326Z"/>
  </g>
  <line id="Baseline-M" style="fill:none;stroke:#27AAE1;opacity:1;stroke-width:0.5;" x1="263" x2="3036" y1="1126" y2="1126"/>
  <line id="Capline-M" style="fill:none;stroke:#27AAE1;opacity:1;stroke-width:0.5;" x1="263" x2="3036" y1="1055.54" y2="1055.54"/>
  <g id="H-reference" style="fill:#27AAE1;stroke:none;" transform="matrix(1 0 0 1 339 1556)">
   <path d="M0.993347 0L3.6377 0L29.3282-67.1326L30.0301-67.1326L30.0301-70.459L28.1227-70.459ZM11.6882-24.4797L46.9818-24.4797L46.2311-26.7288L12.4382-26.7288ZM55.1193 0L57.7637 0L30.6381-70.459L29.4327-70.459L29.4327-67.1326Z"/>
  </g>
  <line id="Baseline-L" style="fill:none;stroke:#27AAE1;opacity:1;stroke-width:0.5;" x1="263" x2="3036" y1="1556" y2="1556"/>
  <line id="Capline-L" style="fill:none;stroke:#27AAE1;opacity:1;stroke-width:0.5;" x1="263" x2="3036" y1="1485.54" y2="1485.54"/>
  <line id="left-margin-Ultralight-S" style="fill:none;stroke:#00AEEF;stroke-width:0.5;opacity:1.0;" x1="503.52" x2="503.52" y1="600.785" y2="720.121"/>
  <line id="right-margin-Ultralight-S" style="fill:none;stroke:#00AEEF;stroke-width:0.5;opacity:1.0;" x1="615.902" x2="615.902" y1="600.785" y2="720.121"/>
  <line id="left-margin-Thin-S" style="fill:none;stroke:#00AEEF;stroke-width:0.5;opacity:1.0;" x1="799.97" x2="799.97" y1="600.785" y2="720.121"/>
  <line id="right-margin-Thin-S" style="fill:none;stroke:#00AEEF;stroke-width:0.5;opacity:1.0;" x1="912.874" x2="912.874" y1="600.785" y2="720.121"/>
  <line id="left-margin-Light-S" style="fill:none;stroke:#00AEEF;stroke-width:0.5;opacity:1.0;" x1="1096.17" x2="1096.17" y1="600.785" y2="720.121"/>
  <line id="right-margin-Light-S" style="fill:none;stroke:#00AEEF;stroke-width:0.5;opacity:1.0;" x1="1210.1" x2="1210.1" y1="600.785" y2="720.121"/>
  <line id="left-margin-Regular-S" style="fill:none;stroke:#00AEEF;stroke-width:0.5;opacity:1.0;" x1="1392.5" x2="1392.5" y1="600.785" y2="720.121"/>
  <line id="right-margin-Regular-S" style="fill:none;stroke:#00AEEF;stroke-width:0.5;opacity:1.0;" x1="1507.19" x2="1507.19" y1="600.785" y2="720.121"/>
  <line id="left-margin-Medium-S" style="fill:none;stroke:#00AEEF;stroke-width:0.5;opacity:1.0;" x1="1688.28" x2="1688.28" y1="600.785" y2="720.121"/>
  <line id="right-margin-Medium-S" style="fill:none;stroke:#00AEEF;stroke-width:0.5;opacity:1.0;" x1="1804.83" x2="1804.83" y1="600.785" y2="720.121"/>
  <line id="left-margin-Semibold-S" style="fill:none;stroke:#00AEEF;stroke-width:0.5;opacity:1.0;" x1="1984.28" x2="1984.28" y1="600.785" y2="720.121"/>
  <line id="right-margin-Semibold-S" style="fill:none;stroke:#00AEEF;stroke-width:0.5;opacity:1.0;" x1="2102.25" x2="2102.25" y1="600.785" y2="720.121"/>
  <line id="left-margin-Bold-S" style="fill:none;stroke:#00AEEF;stroke-width:0.5;opacity:1.0;" x1="2280.05" x2="2280.05" y1="600.785" y2="720.121"/>
  <line id="right-margin-Bold-S" style="fill:none;stroke:#00AEEF;stroke-width:0.5;opacity:1.0;" x1="2399.9" x2="2399.9" y1="600.785" y2="720.121"/>
  <line id="left-margin-Heavy-S" style="fill:none;stroke:#00AEEF;stroke-width:0.5;opacity:1.0;" x1="2575.4" x2="2575.4" y1="600.785" y2="720.121"/>
  <line id="right-margin-Heavy-S" style="fill:none;stroke:#00AEEF;stroke-width:0.5;opacity:1.0;" x1="2697.97" x2="2697.97" y1="600.785" y2="720.121"/>
  <line id="left-margin-Black-S" style="fill:none;stroke:#00AEEF;stroke-width:0.5;opacity:1.0;" x1="2870.9" x2="2870.9" y1="600.785" y2="720.121"/>
  <line id="right-margin-Black-S" style="fill:none;stroke:#00AEEF;stroke-width:0.5;opacity:1.0;" x1="2995.9" x2="2995.9" y1="600.785" y2="720.121"/>
  <line id="left-margin-Ultralight-M" style="fill:none;stroke:#00AEEF;stroke-width:0.5;opacity:1.0;" x1="488.056" x2="488.056" y1="1030.79" y2="1150.12"/>
  <line id="right-margin-Ultralight-M" style="fill:none;stroke:#00AEEF;stroke-width:0.5;opacity:1.0;" x1="631.366" x2="631.366" y1="1030.79" y2="1150.12"/>
  <line id="left-margin-Thin-M" style="fill:none;stroke:#00AEEF;stroke-width:0.5;opacity:1.0;" x1="784.475" x2="784.475" y1="1030.79" y2="1150.12"/>
  <line id="right-margin-Thin-M" style="fill:none;stroke:#00AEEF;stroke-width:0.5;opacity:1.0;" x1="928.37" x2="928.37" y1="1030.79" y2="1150.12"/>
  <line id="left-margin-Light-M" style="fill:none;stroke:#00AEEF;stroke-width:0.5;opacity:1.0;" x1="1080.62" x2="1080.62" y1="1030.79" y2="1150.12"/>
  <line id="right-margin-Light-M" style="fill:none;stroke:#00AEEF;stroke-width:0.5;opacity:1.0;" x1="1225.65" x2="1225.65" y1="1030.79" y2="1150.12"/>
  <line id="left-margin-Regular-M" style="fill:none;stroke:#00AEEF;stroke-width:0.5;opacity:1.0;" x1="1376.9" x2="1376.9" y1="1030.79" y2="1150.12"/>
  <line id="right-margin-Regular-M" style="fill:none;stroke:#00AEEF;stroke-width:0.5;opacity:1.0;" x1="1522.79" x2="1522.79" y1="1030.79" y2="1150.12"/>
  <line id="left-margin-Medium-M" style="fill:none;stroke:#00AEEF;stroke-width:0.5;opacity:1.0;" x1="1672.48" x2="1672.48" y1="1030.79" y2="1150.12"/>
  <line id="right-margin-Medium-M" style="fill:none;stroke:#00AEEF;stroke-width:0.5;opacity:1.0;" x1="1820.63" x2="1820.63" y1="1030.79" y2="1150.12"/>
  <line id="left-margin-Semibold-M" style="fill:none;stroke:#00AEEF;stroke-width:0.5;opacity:1.0;" x1="1968.32" x2="1968.32" y1="1030.79" y2="1150.12"/>
  <line id="right-margin-Semibold-M" style="fill:none;stroke:#00AEEF;stroke-width:0.5;opacity:1.0;" x1="2118.21" x2="2118.21" y1="1030.79" y2="1150.12"/>
  <line id="left-margin-Bold-M" style="fill:none;stroke:#00AEEF;stroke-width:0.5;opacity:1.0;" x1="2263.89" x2="2263.89" y1="1030.79" y2="1150.12"/>
  <line id="right-margin-Bold-M" style="fill:none;stroke:#00AEEF;stroke-width:0.5;opacity:1.0;" x1="2416.06" x2="2416.06" y1="1030.79" y2="1150.12"/>
  <line id="left-margin-Heavy-M" style="fill:none;stroke:#00AEEF;stroke-width:0.5;opacity:1.0;" x1="2558.95" x2="2558.95" y1="1030.79" y2="1150.12"/>
  <line id="right-margin-Heavy-M" style="fill:none;stroke:#00AEEF;stroke-width:0.5;opacity:1.0;" x1="2714.43" x2="2714.43" y1="1030.79" y2="1150.12"/>
  <line id="left-margin-Black-M" style="fill:none;stroke:#00AEEF;stroke-width:0.5;opacity:1.0;" x1="2854.18" x2="2854.18" y1="1030.79" y2="1150.12"/>
  <line id="right-margin-Black-M" style="fill:none;stroke:#00AEEF;stroke-width:0.5;opacity:1.0;" x1="3012.62" x2="3012.62" y1="1030.79" y2="1150.12"/>
  <line id="left-margin-Ultralight-L" style="fill:none;stroke:#00AEEF;stroke-width:0.5;opacity:1.0;" x1="467.39" x2="467.39" y1="1460.79" y2="1580.12"/>
  <line id="right-margin-Ultralight-L" style="fill:none;stroke:#00AEEF;stroke-width:0.5;opacity:1.0;" x1="652.032" x2="652.032" y1="1460.79" y2="1580.12"/>
  <line id="left-margin-Thin-L" style="fill:none;stroke:#00AEEF;stroke-width:0.5;opacity:1.0;" x1="763.773" x2="763.773" y1="1460.79" y2="1580.12"/>
  <line id="right-margin-Thin-L" style="fill:none;stroke:#00AEEF;stroke-width:0.5;opacity:1.0;" x1="949.072" x2="949.072" y1="1460.79" y2="1580.12"/>
  <line id="left-margin-Light-L" style="fill:none;stroke:#00AEEF;stroke-width:0.5;opacity:1.0;" x1="1059.84" x2="1059.84" y1="1460.79" y2="1580.12"/>
  <line id="right-margin-Light-L" style="fill:none;stroke:#00AEEF;stroke-width:0.5;opacity:1.0;" x1="1246.42" x2="1246.42" y1="1460.79" y2="1580.12"/>
  <line id="left-margin-Regular-L" style="fill:none;stroke:#00AEEF;stroke-width:0.5;opacity:1.0;" x1="1356.07" x2="1356.07" y1="1460.79" y2="1580.12"/>
  <line id="right-margin-Regular-L" style="fill:none;stroke:#00AEEF;stroke-width:0.5;opacity:1.0;" x1="1543.62" x2="1543.62" y1="1460.79" y2="1580.12"/>
  <line id="left-margin-Medium-L" style="fill:none;stroke:#00AEEF;stroke-width:0.5;opacity:1.0;" x1="1651.54" x2="1651.54" y1="1460.79" y2="1580.12"/>
  <line id="right-margin-Medium-L" style="fill:none;stroke:#00AEEF;stroke-width:0.5;opacity:1.0;" x1="1841.57" x2="1841.57" y1="1460.79" y2="1580.12"/>
  <line id="left-margin-Semibold-L" style="fill:none;stroke:#00AEEF;stroke-width:0.5;opacity:1.0;" x1="1947.3" x2="1947.3" y1="1460.79" y2="1580.12"/>
  <line id="right-margin-Semibold-L" style="fill:none;stroke:#00AEEF;stroke-width:0.5;opacity:1.0;" x1="2139.23" x2="2139.23" y1="1460.79" y2="1580.12"/>
  <line id="left-margin-Bold-L" style="fill:none;stroke:#00AEEF;stroke-width:0.5;opacity:1.0;" x1="2242.76" x2="2242.76" y1="1460.79" y2="1580.12"/>
  <line id="right-margin-Bold-L" style="fill:none;stroke:#00AEEF;stroke-width:0.5;opacity:1.0;" x1="2437.19" x2="2437.19" y1="1460.79" y2="1580.12"/>
  <line id="left-margin-Heavy-L" style="fill:none;stroke:#00AEEF;stroke-width:0.5;opacity:1.0;" x1="2537.65" x2="2537.65" y1="1460.79" y2="1580.12"/>
  <line id="right-margin-Heavy-L" style="fill:none;stroke:#00AEEF;stroke-width:0.5;opacity:1.0;" x1="2735.72" x2="2735.72" y1="1460.79" y2="1580.12"/>
  <line id="left-margin-Black-L" style="fill:none;stroke:#00AEEF;stroke-width:0.5;opacity:1.0;" x1="2832.74" x2="2832.74" y1="1460.79" y2="1580.12"/>
  <line id="right-margin-Black-L" style="fill:none;stroke:#00AEEF;stroke-width:0.5;opacity:1.0;" x1="3034.06" x2="3034.06" y1="1460.79" y2="1580.12"/>
 </g>
 <g id="Symbols">
  <g id="Black-L" transform="matrix(1 0 0 1 2832.74 1556)">
   <path d="M19.2383-46.3379Q22.3633-43.1641 26.3672-43.1885Q30.3711-43.2129 33.5938-46.3867L35.498-48.2422L42.4316-56.5918L42.4316 2.68555Q42.4316 14.1113 48.6816 20.3125Q54.9316 26.5137 66.3574 26.5137L108.057 26.5137Q112.646 26.5137 115.576 23.6816Q118.506 20.8496 118.457 16.4062Q118.457 11.9141 115.552 9.10645Q112.646 6.29883 108.057 6.29883L69.0918 6.29883Q65.918 6.29883 64.3066 4.78516Q62.6953 3.27148 62.6953-0.146484L62.6953-56.6406L69.6777-48.2422L71.5332-46.3867Q74.7559-43.2129 78.7842-43.1885Q82.8125-43.1641 85.8887-46.3379Q89.0137-49.4629 89.0381-53.4912Q89.0625-57.5195 85.8398-60.6934L63.6719-82.8613Q58.3984-88.1348 52.5635-88.1104Q46.7285-88.0859 41.5039-82.8613L19.2871-60.6934Q16.0645-57.5195 16.1133-53.4912Q16.1621-49.4629 19.2383-46.3379ZM82.8613-86.7676Q82.8613-82.3242 85.7666-79.4922Q88.6719-76.6602 93.3105-76.6602L132.275-76.6602Q135.449-76.6602 137.061-75.1465Q138.672-73.6328 138.672-70.2148L138.672-13.7207L131.689-22.1191L129.785-23.9746Q126.562-27.1973 122.559-27.1973Q118.555-27.1973 115.43-24.0234Q112.354-20.8984 112.305-16.8945Q112.256-12.8906 115.479-9.66797L137.695 12.5Q142.969 17.7246 148.804 17.7002Q154.639 17.6758 159.863 12.5L182.031-9.66797Q185.254-12.8906 185.229-16.8945Q185.205-20.8984 182.08-24.0234Q179.004-27.1973 174.976-27.1973Q170.947-27.1973 167.725-23.9746L165.869-22.1191L158.887-13.7695L158.887-73.0957Q158.887-84.4727 152.661-90.6738Q146.436-96.875 135.01-96.875L93.3105-96.875Q88.6719-96.875 85.7666-94.0674Q82.8613-91.2598 82.8613-86.7676Z"/>
  </g>
  <g id="Heavy-L" transform="matrix(1 0 0 1 2537.65 1556)">
   <path d="M18.8118-46.9254Q21.5218-44.178 24.9897-44.2139Q28.4576-44.2497 31.2546-46.9978L34.2766-49.971L41.9937-58.9081L41.9937 2.85873Q41.9937 13.8 47.8981 19.6499Q53.8025 25.4997 64.7667 25.4997L109.244 25.4997Q113.292 25.4997 115.83 23.0652Q118.368 20.6306 118.319 16.7633Q118.307 12.8479 115.8 10.4321Q113.292 8.0162 109.244 8.0162L66.8907 8.0162Q63.2561 8.0162 61.3853 6.22597Q59.5146 4.43573 59.5146 0.591278L59.5146-58.9684L67.292-49.971L70.2888-46.9978Q73.0736-44.2619 76.5602-44.2142Q80.0468-44.1666 82.7194-46.9254Q85.4408-49.6361 85.4424-53.1284Q85.4439-56.6208 82.6591-59.3681L60.5484-81.4667Q55.8975-86.1061 50.7656-86.0878Q45.6337-86.0695 41.0202-81.4667L18.8835-59.3681Q16.0873-56.6208 16.1133-53.1284Q16.1392-49.6361 18.8118-46.9254ZM79.7501-87.1132Q79.7615-83.2344 82.2689-80.8002Q84.7763-78.3661 88.8504-78.3661L131.215-78.3661Q134.838-78.3661 136.709-76.5759Q138.58-74.7856 138.58-70.9412L138.58-11.3815L130.802-20.3789L127.78-23.3521Q124.995-26.1253 121.527-26.1543Q118.059-26.1833 115.337-23.4245Q112.665-20.7138 112.645-17.2401Q112.624-13.7665 115.409-10.9818L137.557 11.1168Q142.208 15.7196 147.34 15.7009Q152.472 15.6822 157.074 11.1168L179.185-10.9818Q181.981-13.7665 181.974-17.2401Q181.966-20.7138 179.256-23.4245Q176.584-26.1719 173.092-26.1543Q169.599-26.1368 166.814-23.3521L163.829-20.3789L156.063-11.4418L156.063-73.2452Q156.063-84.1499 150.183-89.9998Q144.303-95.8496 133.339-95.8496L88.8504-95.8496Q84.7763-95.8496 82.2571-93.4338Q79.7379-91.0179 79.7501-87.1132Z"/>
  </g>
  <g id="Bold-L" transform="matrix(1 0 0 1 2242.76 1556)">
   <path d="M18.335-47.583Q20.5811-45.3125 23.4497-45.3613Q26.3184-45.4102 28.6377-47.6807L32.9102-51.9043L41.5039-61.499L41.5039 3.05176Q41.5039 13.4521 47.0215 18.9087Q52.5391 24.3652 62.9883 24.3652L110.571 24.3652Q114.014 24.3652 116.113 22.3755Q118.213 20.3857 118.164 17.1631Q118.14 13.8916 116.077 11.9141Q114.014 9.93652 110.571 9.93652L64.4287 9.93652Q60.2783 9.93652 58.1177 7.83691Q55.957 5.7373 55.957 1.41602L55.957-61.5723L64.624-51.9043L68.8965-47.6807Q71.1914-45.4346 74.0723-45.3613Q76.9531-45.2881 79.1748-47.583Q81.4453-49.8291 81.4209-52.7222Q81.3965-55.6152 79.1016-57.8857L57.0557-79.9072Q53.1006-83.8379 48.7549-83.8257Q44.4092-83.8135 40.4785-79.9072L18.4326-57.8857Q16.1133-55.6152 16.1133-52.7222Q16.1133-49.8291 18.335-47.583ZM76.2695-87.5Q76.2939-84.2529 78.3569-82.2632Q80.4199-80.2734 83.8623-80.2734L130.029-80.2734Q134.155-80.2734 136.316-78.1738Q138.477-76.0742 138.477-71.7529L138.477-8.76465L129.81-18.4326L125.537-22.6562Q123.242-24.9268 120.374-24.9878Q117.505-25.0488 115.234-22.7539Q113.013-20.5078 113.025-17.627Q113.037-14.7461 115.332-12.4512L137.402 9.57031Q141.357 13.4766 145.703 13.4644Q150.049 13.4521 153.955 9.57031L176.001-12.4512Q178.32-14.7461 178.333-17.627Q178.345-20.5078 176.099-22.7539Q173.877-25.0244 170.984-24.9878Q168.091-24.9512 165.796-22.6562L161.548-18.4326L152.905-8.83789L152.905-73.4131Q152.905-83.7891 147.412-89.2456Q141.919-94.7021 131.47-94.7021L83.8623-94.7021Q80.4199-94.7021 78.3325-92.7246Q76.2451-90.7471 76.2695-87.5Z"/>
  </g>
  <g id="Semibold-L" transform="matrix(1 0 0 1 1947.3 1556)">
   <path d="M18.0061-48.0362Q19.9326-46.0945 22.3877-46.1521Q24.8428-46.2097 26.8333-48.1514L31.9679-53.2372L41.1659-63.2851L41.1659 3.18527Q41.1659 13.2118 46.4169 18.3975Q51.6678 23.5832 61.7622 23.5832L111.487 23.5832Q114.511 23.5832 116.309 21.9002Q118.106 20.2171 118.057 17.4385Q118.024 14.6118 116.268 12.9364Q114.511 11.261 111.487 11.261L62.7312 11.261Q58.2253 11.261 55.8647 8.94775Q53.5042 6.63452 53.5042 1.98517L53.5042-63.3675L62.7846-53.2372L67.9367-48.1514Q69.8936-46.2433 72.3568-46.1521Q74.8199-46.0609 76.7311-48.0362Q78.6903-49.9626 78.648-52.4422Q78.6057-54.9217 76.6487-56.8634L54.6471-78.8322Q51.1719-82.2739 47.3682-82.2662Q43.5646-82.2586 40.1054-78.8322L18.1213-56.8634Q16.1308-54.9217 16.1133-52.4422Q16.0957-49.9626 18.0061-48.0362ZM73.8701-87.7663Q73.9037-84.9548 75.6599-83.2718Q77.4162-81.5887 80.423-81.5887L129.211-81.5887Q133.685-81.5887 136.045-79.2759Q138.406-76.963 138.406-72.3129L138.406-6.9603L129.125-17.0906L123.991-22.1764Q122.034-24.1005 119.578-24.1837Q117.123-24.2668 115.163-22.2916Q113.253-20.3659 113.287-17.8936Q113.322-15.4213 115.279-13.4644L137.296 8.50372Q140.771 11.9301 144.574 11.9225Q148.378 11.9148 151.804 8.50372L173.806-13.4644Q175.797-15.4213 175.822-17.8936Q175.848-20.3659 173.921-22.2916Q172.011-24.2332 169.531-24.1833Q167.051-24.1333 165.094-22.1764L159.975-17.0906L150.728-7.04269L150.728-73.5283Q150.728-83.5403 145.501-88.7257Q140.275-93.911 130.181-93.911L80.423-93.911Q77.4162-93.911 75.6264-92.2356Q73.8365-90.5602 73.8701-87.7663Z"/>
  </g>
  <g id="Medium-L" transform="matrix(1 0 0 1 1651.54 1556)">
   <path d="M17.7567-48.3803Q19.4405-46.6873 21.5824-46.7518Q23.7244-46.8163 25.4654-48.5085L31.2538-54.248L40.9103-64.64L40.9103 3.28598Q40.9103 13.0302 45.9591 18.0103Q51.0078 22.9904 60.8322 22.9904L112.18 22.9904Q114.889 22.9904 116.457 21.5397Q118.025 20.089 117.976 17.6476Q117.937 15.1573 116.413 13.7112Q114.889 12.265 112.18 12.265L61.4441 12.265Q56.6689 12.265 54.1565 9.79042Q51.6441 7.31583 51.6441 2.41623L51.6441-64.7285L61.3899-54.248L67.2089-48.5085Q68.9102-46.8567 71.0567-46.7522Q73.2033-46.6476 74.8779-48.3803Q76.6014-50.0633 76.5457-52.2301Q76.49-54.3968 74.7887-56.089L52.8214-78.0167Q49.7101-81.0875 46.3173-81.0833Q42.9245-81.0791 39.8224-78.0167L17.8856-56.089Q16.1446-54.3968 16.1133-52.2301Q16.082-50.0633 17.7567-48.3803ZM72.0505-87.9684Q72.0909-85.4874 73.6149-84.0366Q75.1389-82.5859 77.8152-82.5859L128.592-82.5859Q133.327-82.5859 135.839-80.1113Q138.351-77.6367 138.351-72.7371L138.351-5.59235L128.606-16.0728L122.818-21.8124Q121.117-23.4734 118.975-23.5737Q116.833-23.674 115.109-21.9414Q113.435-20.2576 113.486-18.0958Q113.537-15.934 115.238-14.2326L137.215 7.69501Q140.326 10.7574 143.719 10.7533Q147.112 10.7491 150.174 7.69501L172.141-14.2326Q173.883-15.934 173.919-18.0958Q173.954-20.2576 172.27-21.9414Q170.596-23.6336 168.429-23.5737Q166.263-23.5138 164.561-21.8124L158.782-16.0728L149.077-5.68161L149.077-73.616Q149.077-83.3519 144.053-88.3316Q139.028-93.3113 129.204-93.3113L77.8152-93.3113Q75.1389-93.3113 73.5748-91.8652Q72.0108-90.419 72.0505-87.9684Z"/>
  </g>
  <g id="Regular-L" transform="matrix(1 0 0 1 1356.07 1556)">
   <path d="M17.4316-48.8281Q18.7988-47.4609 20.5322-47.5342Q22.2656-47.6074 23.6816-48.9746L30.3223-55.5664L40.5762-66.4062L40.5762 3.41797Q40.5762 12.793 45.3613 17.5049Q50.1465 22.2168 59.6191 22.2168L113.086 22.2168Q115.381 22.2168 116.65 21.0693Q117.92 19.9219 117.871 17.9199Q117.822 15.8691 116.602 14.7217Q115.381 13.5742 113.086 13.5742L59.7656 13.5742Q54.6387 13.5742 51.9287 10.8887Q49.2188 8.20312 49.2188 2.97852L49.2188-66.5039L59.5703-55.5664L66.2598-48.9746Q67.627-47.6562 69.3604-47.5342Q71.0938-47.4121 72.4609-48.8281Q73.877-50.1953 73.8037-51.9531Q73.7305-53.7109 72.3633-55.0781L50.4395-76.9531Q47.8027-79.541 44.9463-79.541Q42.0898-79.541 39.4531-76.9531L17.5781-55.0781Q16.1621-53.7109 16.1133-51.9531Q16.0645-50.1953 17.4316-48.8281ZM69.6777-88.2324Q69.7266-86.1816 70.9473-85.0342Q72.168-83.8867 74.4141-83.8867L127.783-83.8867Q132.861-83.8867 135.571-81.2012Q138.281-78.5156 138.281-73.291L138.281-3.80859L127.93-14.7461L121.289-21.3379Q119.922-22.6562 118.188-22.7783Q116.455-22.9004 115.039-21.4844Q113.672-20.1172 113.745-18.3594Q113.818-16.6016 115.186-15.2344L137.109 6.64062Q139.746 9.22852 142.603 9.22852Q145.459 9.22852 148.047 6.64062L169.971-15.2344Q171.387-16.6016 171.436-18.3594Q171.484-20.1172 170.117-21.4844Q168.75-22.8516 166.992-22.7783Q165.234-22.7051 163.867-21.3379L157.227-14.7461L146.924-3.90625L146.924-73.7305Q146.924-83.1055 142.163-87.8174Q137.402-92.5293 127.93-92.5293L74.4141-92.5293Q72.168-92.5293 70.8984-91.3818Q69.6289-90.2344 69.6777-88.2324Z"/>
  </g>
  <g id="Light-L" transform="matrix(1 0 0 1 1059.84 1556)">
   <path d="M17.144-47.9347Q18.1786-46.9009 19.503-46.9666Q20.8275-47.0322 21.9261-48.0965L29.4144-55.5206L40.9546-67.6018L40.9546 3.56903Q40.9546 12.4146 45.4975 16.9144Q50.0404 21.4142 58.9531 21.4142L115.462 21.4142Q117.152 21.4142 118.119 20.5166Q119.086 19.619 119.052 18.1168Q119.018 16.5802 118.085 15.6902Q117.152 14.8003 115.462 14.8003L59.0996 14.8003Q53.4576 14.8003 50.5131 11.8649Q47.5685 8.92944 47.5685 3.23563L47.5685-67.6697L59.1919-55.5206L66.7137-48.0965Q67.7483-47.1115 69.0804-46.9818Q70.4124-46.8521 71.4622-47.9347Q72.5754-49.0143 72.5021-50.3559Q72.4289-51.6975 71.3791-52.7473L48.5321-75.5608Q46.5309-77.5429 44.3027-77.5429Q42.0746-77.5429 40.0734-75.5608L17.26-52.7473Q16.1774-51.6975 16.1209-50.3559Q16.0645-49.0143 17.144-47.9347ZM67.5285-88.3987Q67.5621-86.8629 68.5028-85.9653Q69.4435-85.0677 71.0991-85.0677L127.48-85.0677Q133.103-85.0677 136.048-82.14Q138.992-79.2122 138.992-73.5031L138.992-2.61307L127.37-14.7461L119.866-22.1855Q118.832-23.1712 117.508-23.3006Q116.183-23.4299 115.085-22.332Q114.005-21.2524 114.078-19.9184Q114.151-18.5844 115.201-17.5201L138.048 5.27802Q140.064 7.26089 142.285 7.26089Q144.505 7.26089 146.488 5.27802L169.32-17.5201Q170.418-18.5844 170.474-19.9184Q170.531-21.2524 169.451-22.332Q168.417-23.381 167.068-23.3154Q165.719-23.2498 164.655-22.1855L157.166-14.7461L145.607-2.66495L145.607-73.8365Q145.607-82.6965 141.073-87.1891Q136.539-91.6817 127.642-91.6817L71.0991-91.6817Q69.4435-91.6817 68.4692-90.7917Q67.495-89.9017 67.5285-88.3987Z"/>
  </g>
  <g id="Thin-L" transform="matrix(1 0 0 1 763.773 1556)">
   <path d="M16.7641-46.7537Q17.3576-46.1601 18.1419-46.2158Q18.9262-46.2715 19.6037-46.9353L28.2127-55.4611L41.4551-69.1833L41.4551 3.76968Q41.4551 11.9141 45.6776 16.1339Q49.9001 20.3537 58.0727 20.3537L118.605 20.3537Q119.494 20.3537 120.06 19.7861Q120.627 19.2184 120.613 18.3769Q120.599 17.5217 120.047 16.9716Q119.494 16.4215 118.605 16.4215L58.2191 16.4215Q51.8967 16.4215 48.6416 13.1561Q45.3865 9.89075 45.3865 3.5759L45.3865-69.2108L58.6914-55.4611L67.3141-46.9353Q67.9085-46.3905 68.7099-46.2509Q69.5114-46.1113 70.1408-46.7537Q70.8534-47.4533 70.7802-48.2445Q70.7069-49.0356 70.0783-49.6643L46.0098-73.719Q44.8494-74.9008 43.4521-74.9008Q42.0547-74.9008 40.8943-73.719L16.8396-49.6643Q16.1972-49.0356 16.1308-48.2445Q16.0645-47.4533 16.7641-46.7537ZM64.6858-88.6192Q64.6996-87.764 65.2699-87.1964Q65.8401-86.6287 66.7152-86.6287L127.08-86.6287Q133.424-86.6287 136.679-83.3809Q139.934-80.1331 139.934-73.7831L139.934-1.03149L126.629-14.7461L117.985-23.3063Q117.39-23.8518 116.607-23.9914Q115.823-24.131 115.144-23.4528Q114.445-22.7539 114.519-21.9803Q114.592-21.2067 115.221-20.5429L139.289 3.47672Q140.485 4.65851 141.864 4.65851Q143.244 4.65851 144.426 3.47672L168.459-20.5429Q169.137-21.2067 169.203-21.9803Q169.27-22.7539 168.571-23.4528Q167.976-24.0822 167.168-24.0265Q166.36-23.9708 165.695-23.3063L157.086-14.7461L143.865-1.02386L143.865-73.9769Q143.865-82.1564 139.632-86.3586Q135.399-90.5609 127.262-90.5609L66.7152-90.5609Q65.8401-90.5609 65.2561-90.0108Q64.6721-89.4608 64.6858-88.6192Z"/>
  </g>
  <g id="Ultralight-L" transform="matrix(1 0 0 1 467.39 1556)">
   <path d="M16.5688-46.1487Q16.9373-45.7809 17.4446-45.8313Q17.952-45.8817 18.4143-46.3409L27.5978-55.4298L41.7114-69.9936L41.7114 3.87192Q41.7114 11.6577 45.7699 15.7337Q49.8283 19.8097 57.621 19.8097L120.216 19.8097Q120.694 19.8097 121.055 19.4118Q121.416 19.014 121.413 18.5104Q121.41 18.0031 121.052 17.6277Q120.694 17.2523 120.216 17.2523L57.7675 17.2523Q51.0963 17.2523 47.6826 13.8176Q44.2688 10.3828 44.2688 3.75061L44.2688-70.0005L58.4351-55.4298L67.6224-46.3409Q67.9901-46.0213 68.5204-45.8767Q69.0506-45.7321 69.4641-46.1487Q69.9715-46.653 69.8982-47.1622Q69.825-47.6715 69.4115-48.085L44.7182-72.7753Q43.988-73.5466 43.0161-73.5466Q42.0441-73.5466 41.3147-72.7753L16.6245-48.085Q16.2079-47.6715 16.1362-47.1622Q16.0645-46.653 16.5688-46.1487ZM63.2294-88.7321Q63.2332-88.2248 63.6135-87.8269Q63.9938-87.429 64.4691-87.429L126.875-87.429Q133.588-87.429 137.001-84.0168Q140.415-80.6046 140.415-73.9265L140.415-0.221252L126.25-14.7461L117.02-23.8808Q116.653-24.2004 116.145-24.345Q115.638-24.4896 115.176-24.0273Q114.671-23.5229 114.744-23.0366Q114.817-22.5502 115.231-22.0909L139.925 2.55356Q140.7 3.32489 141.649 3.32489Q142.598 3.32489 143.369 2.55356L168.018-22.0909Q168.481-22.5502 168.552-23.0366Q168.623-23.5229 168.119-24.0273Q167.751-24.4408 167.22-24.3904Q166.688-24.3401 166.228-23.8808L157.045-14.7461L142.973-0.182343L142.973-74.0486Q142.973-81.8794 138.894-85.9329Q134.814-89.9864 127.067-89.9864L64.4691-89.9864Q63.9938-89.9864 63.6101-89.6111Q63.2263-89.2357 63.2294-88.7321Z"/>
  </g>
  <g id="Black-M" transform="matrix(1 0 0 1 2854.18 1126)">
   <path d="M15.1367-43.0176Q17.7734-40.332 21.2158-40.332Q24.6582-40.332 27.3926-43.0664L28.2227-43.8477L33.3496-50.2441L33.3496-5.9082Q33.3496 3.125 38.4033 8.17871Q43.457 13.2324 52.5391 13.2324L83.4961 13.2324Q87.3047 13.2324 89.7949 10.791Q92.2852 8.34961 92.2852 4.54102Q92.2852 0.78125 89.7949-1.66016Q87.3047-4.10156 83.4961-4.10156L55.1758-4.10156Q52.9297-4.10156 51.8066-5.12695Q50.6836-6.15234 50.6836-8.59375L50.6836-50.2441L55.8594-43.8477L56.6406-43.0664Q59.375-40.332 62.8174-40.332Q66.2598-40.332 68.8965-43.0176Q71.582-45.7031 71.6064-49.1455Q71.6309-52.5879 68.8965-55.3223L51.3184-72.9004Q46.9238-77.2949 42.0166-77.2705Q37.1094-77.2461 32.7637-72.9004L15.1367-55.3223Q12.4023-52.5879 12.4512-49.1455Q12.5-45.7031 15.1367-43.0176ZM66.1133-74.9512Q66.1133-71.1426 68.6035-68.7012Q71.0938-66.2598 74.9512-66.2598L103.271-66.2598Q105.518-66.2598 106.616-65.2588Q107.715-64.2578 107.715-61.8164L107.715-20.166L102.588-26.5625L101.758-27.3438Q99.0234-30.0781 95.5811-30.0781Q92.1387-30.0781 89.502-27.3438Q86.8652-24.6582 86.8164-21.2402Q86.7676-17.8223 89.502-15.0879L107.129 2.49023Q111.523 6.88477 116.431 6.86035Q121.338 6.83594 125.684 2.49023L143.262-15.0879Q145.996-17.8223 145.972-21.2402Q145.947-24.6582 143.311-27.3438Q140.625-30.0781 137.183-30.0781Q133.74-30.0781 131.006-27.3438L130.225-26.5625L125.049-20.166L125.049-64.4531Q125.049-73.5352 120.02-78.5645Q114.99-83.5938 105.908-83.5938L74.9512-83.5938Q71.0938-83.5938 68.6035-81.1523Q66.1133-78.7109 66.1133-74.9512Z"/>
  </g>
  <g id="Heavy-M" transform="matrix(1 0 0 1 2558.95 1126)">
   <path d="M14.7911-43.7897Q17.1051-41.4383 20.1096-41.4555Q23.114-41.4726 25.4913-43.8499L27.2316-45.5421L32.8537-52.2377L32.8537-5.78156Q32.8537 2.90604 37.6251 7.66029Q42.3965 12.4146 51.133 12.4146L84.1644 12.4146Q87.5694 12.4146 89.743 10.3073Q91.9167 8.20007 91.9052 4.85229Q91.9052 1.53046 89.7373-0.576782Q87.5694-2.68402 84.1644-2.68402L53.1822-2.68402Q50.602-2.68402 49.2771-3.92265Q47.9523-5.16129 47.9523-7.92542L47.9523-52.2606L53.624-45.5421L55.3268-43.8499Q57.7156-41.4726 60.7143-41.4555Q63.7131-41.4383 66.0271-43.7897Q68.367-46.1296 68.3796-49.1398Q68.3922-52.15 66.0042-54.5273L48.6908-71.8285Q44.7685-75.7393 40.4144-75.7206Q36.0603-75.7019 32.1762-71.8285L14.8254-54.5273Q12.4367-52.15 12.4626-49.1398Q12.4886-46.1296 14.7911-43.7897ZM63.5429-75.251Q63.5551-71.8918 65.7227-69.7845Q67.8902-67.6773 71.3211-67.6773L102.315-67.6773Q104.895-67.6773 106.195-66.4574Q107.496-65.2374 107.496-62.4733L107.496-18.1374L101.862-24.868L100.121-26.5488Q97.7325-28.9253 94.7338-28.9429Q91.7351-28.9604 89.4211-26.5831Q87.1185-24.2317 87.0872-21.246Q87.056-18.2602 89.444-15.8714L106.795 1.4183Q110.717 5.34058 115.077 5.32188Q119.437 5.30319 123.321 1.4183L140.623-15.8714Q143.011-18.2602 143.004-21.246Q142.997-24.2317 140.694-26.5831Q138.343-28.9604 135.344-28.9429Q132.346-28.9253 129.957-26.5488L128.254-24.868L122.594-18.161L122.594-64.5798Q122.594-73.3047 117.847-78.0403Q113.1-82.7759 104.353-82.7759L71.3211-82.7759Q67.8902-82.7759 65.7108-80.6686Q63.5315-78.5614 63.5429-75.251Z"/>
  </g>
  <g id="Bold-M" transform="matrix(1 0 0 1 2263.89 1126)">
   <path d="M14.4043-44.6533Q16.3574-42.6758 18.8721-42.7124Q21.3867-42.749 23.3643-44.7266L26.123-47.4365L32.2998-54.4678L32.2998-5.63965Q32.2998 2.66113 36.7554 7.08008Q41.2109 11.499 49.5605 11.499L84.9121 11.499Q87.8662 11.499 89.6851 9.76562Q91.5039 8.03223 91.4795 5.2002Q91.4795 2.36816 89.6729 0.634766Q87.8662-1.09863 84.9121-1.09863L50.9521-1.09863Q47.998-1.09863 46.4478-2.57568Q44.8975-4.05273 44.8975-7.17773L44.8975-54.5166L51.123-47.4365L53.8574-44.7266Q55.8594-42.749 58.3618-42.7124Q60.8643-42.6758 62.8174-44.6533Q64.7705-46.6064 64.7705-49.1333Q64.7705-51.6602 62.7686-53.6377L45.752-70.6299Q42.3584-73.999 38.623-73.9868Q34.8877-73.9746 31.5186-70.6299L14.4775-53.6377Q12.4756-51.6602 12.4756-49.1333Q12.4756-46.6064 14.4043-44.6533ZM60.6689-75.5859Q60.6934-72.7295 62.5-70.9961Q64.3066-69.2627 67.2607-69.2627L101.245-69.2627Q104.199-69.2627 105.725-67.7979Q107.251-66.333 107.251-63.208L107.251-15.8691L101.05-22.9736L98.291-25.6592Q96.2891-27.6367 93.7866-27.6733Q91.2842-27.71 89.3311-25.7324Q87.4023-23.7549 87.3901-21.2524Q87.3779-18.75 89.3799-16.748L106.421 0.219727Q109.814 3.61328 113.562 3.60107Q117.31 3.58887 120.679 0.219727L137.671-16.748Q139.673-18.75 139.685-21.2524Q139.697-23.7549 137.769-25.7324Q135.791-27.71 133.289-27.6733Q130.786-27.6367 128.784-25.6592L126.05-22.9736L119.849-15.918L119.849-64.7217Q119.849-73.0469 115.417-77.4536Q110.986-81.8604 102.612-81.8604L67.2607-81.8604Q64.3066-81.8604 62.4756-80.127Q60.6445-78.3936 60.6689-75.5859Z"/>
  </g>
  <g id="Semibold-M" transform="matrix(1 0 0 1 1968.32 1126)">
   <path d="M14.138-45.2484Q15.8417-43.5287 18.0187-43.5787Q20.1958-43.6287 21.8979-45.3308L25.3586-48.7427L31.9176-56.0051L31.9176-5.54199Q31.9176 2.49252 36.1553 6.6803Q40.3931 10.8681 48.4764 10.8681L85.4279 10.8681Q88.0707 10.8681 89.645 9.39255Q91.2193 7.91702 91.1865 5.44052Q91.1865 2.94571 89.6286 1.47018Q88.0707-0.00534058 85.4279-0.00534058L49.4148-0.00534058Q46.2029-0.00534058 44.4969-1.6468Q42.791-3.28827 42.791-6.66199L42.791-56.0715L49.3988-48.7427L52.8442-45.3308Q54.5799-43.6287 56.7402-43.5787Q58.9005-43.5287 60.6049-45.2484Q62.291-46.9353 62.2822-49.1287Q62.2734-51.3222 60.5377-53.0243L43.7256-69.8036Q40.6967-72.7989 37.3878-72.7913Q34.079-72.7837 31.0654-69.8036L14.2372-53.0243Q12.5023-51.3222 12.4844-49.1287Q12.4664-46.9353 14.138-45.2484ZM58.6868-75.8171Q58.7204-73.307 60.2783-71.8315Q61.8362-70.356 64.4615-70.356L100.507-70.356Q103.719-70.356 105.401-68.7222Q107.082-67.0883 107.082-63.7146L107.082-14.3051L100.49-21.6675L97.0291-25.0458Q95.2934-26.7479 93.1332-26.7979Q90.9729-26.8478 89.2685-25.1457Q87.5977-23.4261 87.5988-21.257Q87.5999-19.088 89.3356-17.3523L106.163-0.606537Q109.193 2.42233 112.518 2.4147Q115.843 2.40707 118.857-0.606537L135.636-17.3523Q137.371-19.088 137.397-21.257Q137.422-23.4261 135.751-25.1457Q134.032-26.8478 131.871-26.7979Q129.711-26.7479 127.975-25.0458L124.53-21.6675L117.956-14.3715L117.956-64.8193Q117.956-72.8691 113.742-77.0493Q109.529-81.2294 101.412-81.2294L64.4615-81.2294Q61.8362-81.2294 60.2451-79.7539Q58.654-78.2784 58.6868-75.8171Z"/>
  </g>
  <g id="Medium-M" transform="matrix(1 0 0 1 1672.48 1126)">
   <path d="M13.9359-45.7001Q15.451-44.1757 17.3721-44.236Q19.2932-44.2963 20.7863-45.7893L24.7795-49.7337L31.6277-57.1709L31.6277-5.46799Q31.6277 2.36435 35.7006 6.37703Q39.7736 10.3897 47.654 10.3897L85.8185 10.3897Q88.2256 10.3897 89.6149 9.1095Q91.0042 7.82928 90.9637 5.6221Q90.9637 3.38364 89.5947 2.10342Q88.2256 0.823212 85.8185 0.823212L48.2491 0.823212Q44.8418 0.823212 43.018-0.942993Q41.1942-2.7092 41.1942-6.27136L41.1942-57.251L48.0919-49.7337L52.076-45.7893Q53.6095-44.2963 55.5103-44.236Q57.4112-44.1757 58.9264-45.7001Q60.4111-47.1848 60.3954-49.1257Q60.3798-51.0666 58.8463-52.5597L42.189-69.1765Q39.4363-71.8895 36.451-71.8853Q33.4656-71.8811 30.7213-69.1765L14.0556-52.5597Q12.5221-51.0666 12.4912-49.1257Q12.4603-47.1848 13.9359-45.7001ZM57.1846-75.9918Q57.2243-73.745 58.5934-72.4648Q59.9625-71.1845 62.339-71.1845L99.9481-71.1845Q103.355-71.1845 105.155-69.4229Q106.954-67.6613 106.954-64.0984L106.954-13.1187L100.066-20.6764L96.0724-24.5811Q94.5389-26.0742 92.638-26.1341Q90.7372-26.194 89.222-24.7009Q87.7464-23.1766 87.7575-21.2601Q87.7686-19.3436 89.3021-17.8108L105.968-1.23367Q108.72 1.51978 111.726 1.5152Q114.732 1.51062 117.476-1.23367L134.093-17.8108Q135.626-19.3436 135.662-21.2601Q135.697-23.1766 134.222-24.7009Q132.697-26.194 130.796-26.1341Q128.896-26.0742 127.362-24.5811L123.378-20.6764L116.521-13.1989L116.521-64.8933Q116.521-72.7341 112.472-76.7426Q108.424-80.751 100.503-80.751L62.339-80.751Q59.9625-80.751 58.5533-79.4708Q57.1442-78.1906 57.1846-75.9918Z"/>
  </g>
  <g id="Regular-M" transform="matrix(1 0 0 1 1376.9 1126)">
   <path d="M13.6719-46.2891Q14.9414-45.0195 16.5283-45.0928Q18.1152-45.166 19.3359-46.3867L24.0234-51.0254L31.25-58.6914L31.25-5.37109Q31.25 2.19727 35.1074 5.98145Q38.9648 9.76562 46.582 9.76562L86.3281 9.76562Q88.4277 9.76562 89.5752 8.74023Q90.7227 7.71484 90.6738 5.85938Q90.6738 3.95508 89.5508 2.92969Q88.4277 1.9043 86.3281 1.9043L46.7285 1.9043Q43.0664 1.9043 41.0889-0.0244141Q39.1113-1.95312 39.1113-5.76172L39.1113-58.7891L46.3867-51.0254L51.0742-46.3867Q52.3438-45.166 53.9062-45.0928Q55.4688-45.0195 56.7383-46.2891Q57.959-47.5098 57.9346-49.1211Q57.9102-50.7324 56.6406-51.9531L40.1855-68.3594Q37.793-70.7031 35.2295-70.7031Q32.666-70.7031 30.2734-68.3594L13.8184-51.9531Q12.5488-50.7324 12.5-49.1211Q12.4512-47.5098 13.6719-46.2891ZM55.2246-76.2207Q55.2734-74.3164 56.3965-73.291Q57.5195-72.2656 59.5703-72.2656L99.2188-72.2656Q102.881-72.2656 104.834-70.3369Q106.787-68.4082 106.787-64.5996L106.787-11.5723L99.5117-19.3848L94.8242-23.9746Q93.5547-25.1953 91.9922-25.2686Q90.4297-25.3418 89.1602-24.1211Q87.9395-22.8516 87.9639-21.2646Q87.9883-19.6777 89.2578-18.4082L105.713-2.05078Q108.105 0.341797 110.693 0.341797Q113.281 0.341797 115.674-2.05078L132.08-18.4082Q133.35-19.6777 133.398-21.2646Q133.447-22.8516 132.227-24.1211Q130.957-25.3418 129.395-25.2686Q127.832-25.1953 126.562-23.9746L121.875-19.3848L114.648-11.6699L114.648-64.9902Q114.648-72.5586 110.815-76.3428Q106.982-80.127 99.3164-80.127L59.5703-80.127Q57.5195-80.127 56.3477-79.1016Q55.1758-78.0762 55.2246-76.2207Z"/>
  </g>
  <g id="Light-M" transform="matrix(1 0 0 1 1080.62 1126)">
   <path d="M13.4148-45.4865Q14.3814-44.5198 15.6052-44.5782Q16.8289-44.6365 17.762-45.5994L23.2208-50.9796L31.5826-59.7664L31.5826-5.23453Q31.5826 1.86462 35.2207 5.45197Q38.8588 9.03931 45.9915 9.03931L88.4476 9.03931Q90.0017 9.03931 90.8844 8.23326Q91.7671 7.42722 91.7336 6.04095Q91.7336 4.60587 90.8676 3.79982Q90.0017 2.99377 88.4476 2.99377L46.1227 2.99377Q41.9914 2.99377 39.8098 0.845718Q37.6282-1.30234 37.6282-5.53436L37.6282-59.8335L46.0541-50.9796L51.4984-45.5994Q52.4651-44.6815 53.664-44.593Q54.863-44.5045 55.8449-45.4865Q56.8085-46.45 56.7764-47.683Q56.7444-48.9159 55.7625-49.8642L38.475-67.1028Q36.6425-68.9171 34.6466-68.9171Q32.6508-68.9171 30.8182-67.1028L13.5307-49.8642Q12.5488-48.9159 12.5-47.683Q12.4512-46.45 13.4148-45.4865ZM53.302-76.3718Q53.3363-74.9367 54.2019-74.131Q55.0674-73.3253 56.5887-73.3253L98.9464-73.3253Q103.078-73.3253 105.25-71.1769Q107.423-69.0285 107.423-64.7964L107.423-10.4973L98.9967-19.3848L93.5524-24.7314Q92.5858-25.6493 91.3792-25.7378Q90.1726-25.8263 89.1907-24.8779Q88.2271-23.8808 88.2668-22.6646Q88.3064-21.4485 89.2731-20.4666L106.561-3.26157Q108.393-1.41373 110.413-1.41373Q112.434-1.41373 114.266-3.26157L131.505-20.4666Q132.487-21.4485 132.536-22.6646Q132.584-23.8808 131.621-24.8779Q130.654-25.811 129.455-25.7454Q128.256-25.6798 127.274-24.7314L121.829-19.3848L113.453-10.5652L113.453-65.0963Q113.453-72.1954 109.832-75.7828Q106.21-79.3701 99.0593-79.3701L56.5887-79.3701Q55.0674-79.3701 54.1679-78.5641Q53.2684-77.758 53.302-76.3718Z"/>
  </g>
  <g id="Thin-M" transform="matrix(1 0 0 1 784.475 1126)">
   <path d="M13.0745-44.426Q13.6406-43.8591 14.3837-43.8972Q15.1268-43.9354 15.6799-44.5587L22.1603-50.9201L32.0236-61.1877L32.0236-5.05447Q32.0236 1.42365 35.371 4.75082Q38.7184 8.078 45.211 8.078L91.2498 8.078Q92.0837 8.078 92.6159 7.56264Q93.148 7.04727 93.1343 6.28128Q93.1343 5.46646 92.609 4.9511Q92.0837 4.43573 91.2498 4.43573L45.3224 4.43573Q40.5701 4.43573 38.118 1.99699Q35.6659-0.441742 35.6659-5.23453L35.6659-61.2144L45.6131-50.9201L52.0584-44.5587Q52.6253-44.0414 53.344-43.9327Q54.0627-43.824 54.6638-44.426Q55.2872-45.0493 55.2452-45.7817Q55.2032-46.5141 54.6013-47.1016L36.2129-65.4419Q35.1212-66.555 33.876-66.555Q32.6309-66.555 31.5392-65.4419L13.1508-47.1016Q12.5488-46.5141 12.5-45.7817Q12.4512-45.0493 13.0745-44.426ZM50.7599-76.5724Q50.7736-75.7576 51.2989-75.2419Q51.8242-74.7261 52.6451-74.7261L98.5863-74.7261Q103.338-74.7261 105.801-72.2878Q108.263-69.8494 108.263-65.0566L108.263-9.07593L98.3162-19.3848L91.8709-25.7324Q91.3048-26.2497 90.5685-26.3584Q89.8323-26.4671 89.2303-25.8789Q88.607-25.2419 88.6669-24.5163Q88.7268-23.7907 89.2929-23.1895L107.681-4.86298Q108.773-3.73611 110.043-3.73611Q111.313-3.73611 112.405-4.86298L130.744-23.1895Q131.346-23.7907 131.395-24.5163Q131.444-25.2419 130.82-25.8789Q130.254-26.4313 129.535-26.376Q128.816-26.3206 128.215-25.7324L121.77-19.3848L111.871-9.10339L111.871-65.2367Q111.871-71.7148 108.53-75.042Q105.19-78.3691 98.719-78.3691L52.6451-78.3691Q51.8242-78.3691 51.2852-77.8534Q50.7462-77.3376 50.7599-76.5724Z"/>
  </g>
  <g id="Ultralight-M" transform="matrix(1 0 0 1 488.056 1126)">
   <path d="M12.8998-43.882Q13.2614-43.5211 13.7585-43.549Q14.2555-43.5768 14.6133-44.0254L21.6164-50.8888L32.2487-61.9156L32.2487-4.96216Q32.2487 1.19858 35.4477 4.39224Q38.6467 7.58591 44.8112 7.58591L92.6857 7.58591Q93.1503 7.58591 93.5032 7.21893Q93.856 6.85196 93.8522 6.40411Q93.8522 5.90744 93.5013 5.54047Q93.1503 5.17349 92.6857 5.17349L44.912 5.17349Q39.8422 5.17349 37.2517 2.58636Q34.6611-0.000762939 34.6611-5.08041L34.6611-61.9225L45.388-50.8888L52.346-44.0254Q52.7069-43.7126 53.1796-43.594Q53.6522-43.4753 54.0588-43.882Q54.5082-44.3314 54.4609-44.8074Q54.4136-45.2835 54.007-45.6863L35.054-64.5905Q34.3422-65.345 33.4812-65.345Q32.6202-65.345 31.9084-64.5905L12.9555-45.6863Q12.5488-45.2835 12.5-44.8074Q12.4512-44.3314 12.8998-43.882ZM49.4576-76.6747Q49.4614-76.178 49.8123-75.811Q50.1633-75.444 50.6248-75.444L98.4016-75.444Q103.471-75.444 106.083-72.8569Q108.694-70.2698 108.694-65.1901L108.694-8.34808L97.9675-19.3848L91.0095-26.2451Q90.6487-26.5579 90.1531-26.6766Q89.6576-26.7952 89.2509-26.3916Q88.8023-25.9392 88.8721-25.465Q88.942-24.9908 89.3036-24.5842L108.256-5.6839Q108.968-4.92554 109.853-4.92554Q110.738-4.92554 111.451-5.6839L130.354-24.5842Q130.761-24.9908 130.81-25.465Q130.859-25.9392 130.41-26.3916Q130.049-26.7494 129.576-26.6991Q129.104-26.6487 128.696-26.2451L121.738-19.3848L111.061-8.35495L111.061-65.3084Q111.061-71.4691 107.864-74.6628Q104.667-77.8564 98.5443-77.8564L50.6248-77.8564Q50.1633-77.8564 49.8089-77.4895Q49.4545-77.1225 49.4576-76.6747Z"/>
  </g>
  <g id="Black-S" transform="matrix(1 0 0 1 2870.9 696)">
   <path d="M11.9629-41.0645Q14.1113-38.8672 16.9189-38.8428Q19.7266-38.8184 21.9727-41.0645L22.3633-41.4551L26.3184-46.4355L26.3184-12.3047Q26.3184-5.12695 30.3467-1.09863Q34.375 2.92969 41.5527 2.92969L65.332 2.92969Q68.457 2.92969 70.4834 0.927734Q72.5098-1.07422 72.5098-4.15039Q72.5098-7.22656 70.4834-9.22852Q68.457-11.2305 65.332-11.2305L43.7988-11.2305Q42.1387-11.2305 41.3086-11.9873Q40.4785-12.7441 40.4785-14.5508L40.4785-46.4355L44.4336-41.4551L44.8242-41.0645Q47.0703-38.8184 49.8779-38.8428Q52.6855-38.8672 54.834-41.0645Q56.9824-43.2617 57.0312-46.0449Q57.0801-48.8281 54.834-51.0742L40.918-64.9902Q37.3535-68.5547 33.374-68.5303Q29.3945-68.5059 25.8789-64.9902L11.9629-51.0742Q9.7168-48.8281 9.76562-46.0449Q9.81445-43.2617 11.9629-41.0645ZM52.4902-66.2598Q52.4902-63.1836 54.5166-61.1816Q56.543-59.1797 59.668-59.1797L81.2012-59.1797Q82.9102-59.1797 83.7158-58.4473Q84.5215-57.7148 84.5215-55.8594L84.5215-23.9746L80.5664-28.9551L80.1758-29.3457Q77.9297-31.5918 75.1221-31.5674Q72.3145-31.543 70.166-29.3457Q68.0176-27.1484 67.9688-24.3652Q67.9199-21.582 70.166-19.3359L84.082-5.41992Q87.6465-1.85547 91.626-1.87988Q95.6055-1.9043 99.1211-5.41992L113.037-19.3359Q115.283-21.582 115.234-24.3652Q115.186-27.1484 113.037-29.3457Q110.889-31.543 108.081-31.5674Q105.273-31.5918 103.027-29.3457L102.637-28.9551L98.6816-23.9746L98.6816-58.1055Q98.6816-65.2832 94.6533-69.3115Q90.625-73.3398 83.4473-73.3398L59.668-73.3398Q56.543-73.3398 54.5166-71.3379Q52.4902-69.3359 52.4902-66.2598Z"/>
  </g>
  <g id="Heavy-S" transform="matrix(1 0 0 1 2575.4 696)">
   <path d="M11.6982-41.8137Q13.604-39.8697 16.0831-39.8685Q18.5623-39.8674 20.5437-41.8365L21.6141-42.907L25.8461-48.0026L25.8461-12.2124Q25.8461-5.27649 29.6555-1.47285Q33.4648 2.33078 40.4236 2.33078L65.6204 2.33078Q68.457 2.33078 70.253 0.582123Q72.049-1.16653 72.0375-3.90854Q72.0261-6.66199 70.2415-8.41026Q68.457-10.1585 65.6204-10.1585L42.1623-10.1585Q40.2718-10.1585 39.2975-11.0653Q38.3232-11.972 38.3232-14.0091L38.3232-48.0263L42.5667-42.907L43.6371-41.8365Q45.6184-39.8674 48.0976-39.8685Q50.5768-39.8697 52.4826-41.8137Q54.3777-43.7576 54.4094-46.2238Q54.4411-48.69 52.4597-50.6592L38.8779-64.2296Q35.6476-67.4484 32.066-67.4297Q28.4843-67.411 25.2914-64.2296L11.721-50.6592Q9.73969-48.69 9.76562-46.2238Q9.79156-43.7576 11.6982-41.8137ZM50.531-66.4902Q50.531-63.7482 52.3155-61.9999Q54.1-60.2516 56.9366-60.2516L80.4062-60.2516Q82.3341-60.2516 83.2893-59.3578Q84.2445-58.4641 84.2445-56.4011L84.2445-22.3839L80.0018-27.5032L78.9314-28.5622Q76.9501-30.5428 74.4709-30.5416Q71.9917-30.5405 70.0851-28.5851Q68.1786-26.6525 68.153-24.1863Q68.1274-21.7201 70.108-19.751L83.6784-6.18057Q86.9087-2.96173 90.4907-2.98042Q94.0727-2.99911 97.2656-6.18057L110.847-19.751Q112.829-21.7201 112.797-24.1863Q112.766-26.6525 110.87-28.5851Q108.964-30.529 106.485-30.5359Q104.005-30.5428 102.025-28.5622L100.943-27.5032L96.7224-22.3961L96.7224-58.1978Q96.7224-65.1337 92.9073-68.9373Q89.0923-72.7409 82.1449-72.7409L56.9366-72.7409Q54.1-72.7409 52.3098-70.9923Q50.5196-69.2436 50.531-66.4902Z"/>
  </g>
  <g id="Bold-S" transform="matrix(1 0 0 1 2280.05 696)">
   <path d="M11.4014-42.6514Q13.0371-40.9912 15.1489-41.0156Q17.2607-41.04 18.9453-42.7002L20.7764-44.5312L25.3174-49.7559L25.3174-12.1094Q25.3174-5.44434 28.8818-1.89209Q32.4463 1.66016 39.1602 1.66016L65.9424 1.66016Q68.457 1.66016 69.9951 0.195312Q71.5332-1.26953 71.5088-3.6377Q71.4844-6.03027 69.9707-7.49512Q68.457-8.95996 65.9424-8.95996L40.332-8.95996Q38.1836-8.95996 37.0483-10.0342Q35.9131-11.1084 35.9131-13.4033L35.9131-49.8047L40.4785-44.5312L42.3096-42.7002Q43.9941-41.04 46.106-41.0156Q48.2178-40.9912 49.8535-42.6514Q51.4648-44.3115 51.4771-46.4233Q51.4893-48.5352 49.8047-50.1953L36.5967-63.3789Q33.7402-66.2109 30.603-66.1987Q27.4658-66.1865 24.6338-63.3789L11.4502-50.1953Q9.76562-48.5352 9.76562-46.4233Q9.76562-44.3115 11.4014-42.6514ZM48.3398-66.748Q48.3398-64.3799 49.8535-62.915Q51.3672-61.4502 53.8818-61.4502L79.5166-61.4502Q81.6895-61.4502 82.8125-60.376Q83.9355-59.3018 83.9355-57.0068L83.9355-20.6055L79.3701-25.8789L77.5391-27.6855Q75.8545-29.3701 73.7427-29.3945Q71.6309-29.4189 69.9951-27.7344Q68.3594-26.0986 68.3594-23.9868Q68.3594-21.875 70.0439-20.2148L83.2275-7.03125Q86.084-4.19922 89.2212-4.21143Q92.3584-4.22363 95.1904-7.03125L108.398-20.2148Q110.083-21.875 110.071-23.9868Q110.059-26.0986 108.447-27.7344Q106.812-29.3945 104.7-29.3823Q102.588-29.3701 100.903-27.6855L99.0479-25.8789L94.5312-20.6299L94.5312-58.3008Q94.5312-64.9658 90.9546-68.5181Q87.3779-72.0703 80.6885-72.0703L53.8818-72.0703Q51.3672-72.0703 49.8413-70.6055Q48.3154-69.1406 48.3398-66.748Z"/>
  </g>
  <g id="Semibold-S" transform="matrix(1 0 0 1 1984.28 696)">
   <path d="M11.1969-43.2289Q12.6457-41.7641 14.5046-41.8064Q16.3635-41.8488 17.8436-43.2953L20.1988-45.6512L24.9527-50.9644L24.9527-12.0384Q24.9527-5.55954 28.3485-2.18086Q31.7444 1.19781 38.2889 1.19781L66.1644 1.19781Q68.457 1.19781 69.8174-0.0713348Q71.1777-1.34048 71.1441-3.45078Q71.1113-5.59464 69.7842-6.86417Q68.457-8.1337 66.1644-8.1337L39.0701-8.1337Q36.7439-8.1337 35.4977-9.3235Q34.2514-10.5133 34.2514-12.986L34.2514-51.0307L39.0388-45.6512L41.394-43.2953Q42.8741-41.8488 44.7327-41.8064Q46.5912-41.7641 48.0408-43.2289Q49.456-44.6938 49.4553-46.5611Q49.4545-48.4283 47.9736-49.8756L35.0235-62.7922Q32.4249-65.358 29.5944-65.35Q26.7639-65.3419 24.1806-62.7922L11.2633-49.8756Q9.78317-48.4283 9.76562-46.5611Q9.74808-44.6938 11.1969-43.2289ZM46.8292-66.9258Q46.8292-64.8155 48.1564-63.546Q49.4835-62.2765 51.7754-62.2765L78.9032-62.2765Q81.2454-62.2765 82.4837-61.0779Q83.7219-59.8793 83.7219-57.4242L83.7219-19.3794L78.9345-24.7589L76.5793-27.0813Q75.0992-28.5614 73.2407-28.6037Q71.3821-28.6461 69.9326-27.1477Q68.4837-25.7164 68.5017-23.8491Q68.5196-21.9818 69.9997-20.5345L82.9163-7.61795Q85.5156-5.05219 88.3461-5.0602Q91.1766-5.06821 93.7599-7.61795L106.71-20.5345Q108.19-21.9818 108.191-23.8491Q108.192-25.7164 106.776-27.1477Q105.328-28.6125 103.469-28.587Q101.611-28.5614 100.13-27.0813L97.7417-24.7589L93.0206-19.4122L93.0206-58.3717Q93.0206-64.8506 89.6084-68.2293Q86.1961-71.608 79.6844-71.608L51.7754-71.608Q49.4835-71.608 48.1396-70.3388Q46.7957-69.0697 46.8292-66.9258Z"/>
  </g>
  <g id="Medium-S" transform="matrix(1 0 0 1 1688.28 696)">
   <path d="M11.042-43.6668Q12.3497-42.3508 14.016-42.4065Q15.6822-42.4622 17.0074-43.7469L19.7609-46.5004L24.6765-51.8806L24.6765-11.9843Q24.6765-5.64728 27.9442-2.39983Q31.2119 0.847626 37.6289 0.847626L66.333 0.847626Q68.457 0.847626 69.6827-0.273514Q70.9084-1.39465 70.8679-3.30963Q70.8282-5.26428 69.6426-6.38542Q68.457-7.50656 66.333-7.50656L38.1134-7.50656Q35.6522-7.50656 34.3216-8.7841Q32.991-10.0616 32.991-12.6686L32.991-51.9608L37.9471-46.5004L40.7005-43.7469Q42.025-42.4622 43.6916-42.4065Q45.3583-42.3508 46.666-43.6668Q47.9332-44.9837 47.9221-46.6656Q47.9111-48.3475 46.5858-49.633L33.831-62.3474Q31.4278-64.711 28.8296-64.7064Q26.2314-64.7018 23.8365-62.3474L11.1221-49.633Q9.79691-48.3475 9.76562-46.6656Q9.73434-44.9837 11.042-43.6668ZM45.6833-67.0609Q45.6833-65.1459 46.8689-64.0247Q48.0545-62.9036 50.1785-62.9036L78.4386-62.9036Q80.9082-62.9036 82.2342-61.6104Q83.5602-60.3172 83.5602-57.7415L83.5602-18.4494L78.6041-23.9098L75.8514-26.6228Q74.5262-27.948 72.86-28.0037Q71.1937-28.0594 69.886-26.7029Q68.5783-25.4265 68.6096-23.7446Q68.6409-22.0627 69.9661-20.7771L82.6805-8.06274Q85.0838-5.69916 87.682-5.70374Q90.2802-5.70831 92.675-8.06274L105.43-20.7771Q106.755-22.0627 106.766-23.7446Q106.777-25.4265 105.51-26.7029Q104.202-28.0197 102.536-27.9839Q100.869-27.948 99.5438-26.6228L96.7506-23.9098L91.8747-18.4891L91.8747-58.4259Q91.8747-64.7629 88.5872-68.0103Q85.2997-71.2578 78.923-71.2578L50.1785-71.2578Q48.0545-71.2578 46.8491-70.1366Q45.6436-69.0155 45.6833-67.0609Z"/>
  </g>
  <g id="Regular-S" transform="matrix(1 0 0 1 1392.5 696)">
   <path d="M10.8398-44.2383Q11.9629-43.1152 13.3789-43.1885Q14.7949-43.2617 15.918-44.3359L19.1895-47.6074L24.3164-53.0762L24.3164-11.9141Q24.3164-5.76172 27.417-2.68555Q30.5176 0.390625 36.7676 0.390625L66.5527 0.390625Q68.457 0.390625 69.5068-0.537109Q70.5566-1.46484 70.5078-3.125Q70.459-4.83398 69.458-5.76172Q68.457-6.68945 66.5527-6.68945L36.8652-6.68945Q34.2285-6.68945 32.7881-8.08105Q31.3477-9.47266 31.3477-12.2559L31.3477-53.1738L36.5234-47.6074L39.7949-44.3359Q40.918-43.2617 42.334-43.1885Q43.75-43.1152 44.873-44.2383Q45.9473-45.3613 45.9229-46.8018Q45.8984-48.2422 44.7754-49.3164L32.2754-61.7676Q30.127-63.8672 27.832-63.8672Q25.5371-63.8672 23.3887-61.7676L10.9375-49.3164Q9.81445-48.2422 9.76562-46.8018Q9.7168-45.3613 10.8398-44.2383ZM44.1895-67.2363Q44.1895-65.5762 45.1904-64.6484Q46.1914-63.7207 48.0957-63.7207L77.832-63.7207Q80.4688-63.7207 81.9092-62.3047Q83.3496-60.8887 83.3496-58.1543L83.3496-17.2363L78.1738-22.8027L74.9023-26.0254Q73.7793-27.1484 72.3633-27.2217Q70.9473-27.2949 69.8242-26.123Q68.7012-25.0488 68.75-23.6084Q68.7988-22.168 69.9219-21.0938L82.373-8.64258Q84.5215-6.54297 86.8164-6.54297Q89.1113-6.54297 91.2598-8.64258L103.76-21.0938Q104.883-22.168 104.907-23.6084Q104.932-25.0488 103.857-26.123Q102.734-27.2461 101.318-27.1973Q99.9023-27.1484 98.7793-26.0254L95.459-22.8027L90.3809-17.2852L90.3809-58.4961Q90.3809-64.6484 87.2559-67.7246Q84.1309-70.8008 77.9297-70.8008L48.0957-70.8008Q46.1914-70.8008 45.166-69.873Q44.1406-68.9453 44.1895-67.2363Z"/>
  </g>
  <g id="Light-S" transform="matrix(1 0 0 1 1096.17 696)">
   <path d="M10.598-43.5417Q11.4632-42.6765 12.5538-42.7422Q13.6444-42.8078 14.5256-43.6394L18.4784-47.5769L24.604-54.0298L24.604-11.7928Q24.604-6.04935 27.523-3.15475Q30.442-0.260162 36.2381-0.260162L68.4296-0.260162Q69.8647-0.260162 70.6722-0.983429Q71.4798-1.7067 71.4462-2.97394Q71.4127-4.25873 70.6387-4.98962Q69.8647-5.72052 68.4296-5.72052L36.3358-5.72052Q33.2748-5.72052 31.6528-7.30896Q30.0308-8.8974 30.0308-12.059L30.0308-54.097L36.2053-47.5769L40.1581-43.6394Q41.024-42.823 42.1146-42.7498Q43.2053-42.6765 44.0857-43.5417Q44.9333-44.4229 44.9013-45.5303Q44.8692-46.6377 44.0033-47.4701L30.777-60.6628Q29.113-62.2932 27.3251-62.2932Q25.5371-62.2932 23.8731-60.6628L10.6804-47.4701Q9.81445-46.6377 9.76562-45.5303Q9.7168-44.4229 10.598-43.5417ZM42.4789-67.3729Q42.4789-66.1209 43.2529-65.39Q44.0269-64.6591 45.462-64.6591L77.5902-64.6591Q80.6503-64.6591 82.2723-63.0539Q83.8943-61.4487 83.8943-58.3206L83.8943-16.2827L77.7199-22.8027L73.7671-26.7067Q72.9012-27.5574 71.8105-27.6306Q70.7199-27.7039 69.8547-26.8044Q68.9735-25.9567 69.0147-24.8493Q69.0559-23.7419 69.9371-22.9103L83.1299-9.71756Q84.7786-8.08716 86.5742-8.08716Q88.3698-8.08716 90.0185-9.71756L103.245-22.9103Q104.111-23.7419 104.143-24.8493Q104.175-25.9567 103.328-26.8044Q102.462-27.6703 101.371-27.6215Q100.281-27.5726 99.4148-26.7067L95.4285-22.8027L89.3211-16.3162L89.3211-58.5869Q89.3211-64.3303 86.393-67.2249Q83.4648-70.1195 77.6878-70.1195L45.462-70.1195Q44.0269-70.1195 43.2362-69.3962Q42.4454-68.6729 42.4789-67.3729Z"/>
  </g>
  <g id="Thin-S" transform="matrix(1 0 0 1 799.97 696)">
   <path d="M10.2776-42.6208Q10.8025-42.0959 11.4628-42.1516Q12.1231-42.2073 12.6839-42.7185L17.5369-47.5372L24.984-55.291L24.984-11.6325Q24.984-6.42929 27.663-3.77502Q30.3421-1.12076 35.537-1.12076L70.9122-1.12076Q71.7262-1.12076 72.2137-1.57394Q72.7013-2.02713 72.6875-2.77328Q72.6738-3.49808 72.2-3.96881Q71.7262-4.43954 70.9122-4.43954L35.6346-4.43954Q32.0137-4.43954 30.1514-6.28815Q28.289-8.13675 28.289-11.7989L28.289-55.3185L35.7849-47.5372L40.6387-42.7185Q41.1644-42.2424 41.8243-42.1692Q42.4843-42.0959 43.045-42.6208Q43.5921-43.1816 43.5501-43.8488Q43.5081-44.516 42.9825-45.0272L28.7949-59.201Q27.7718-60.2112 26.6544-60.2112Q25.5371-60.2112 24.514-59.201L10.3401-45.0272Q9.81445-44.516 9.76562-43.8488Q9.7168-43.1816 10.2776-42.6208ZM40.2168-67.5529Q40.2168-66.8419 40.6906-66.3712Q41.1644-65.9004 41.9785-65.9004L77.2697-65.9004Q80.8907-65.9004 82.753-64.045Q84.6153-62.1895 84.6153-58.5411L84.6153-15.0215L77.1194-22.8027L72.2656-27.6077Q71.74-28.0975 71.08-28.1708Q70.4201-28.244 69.8944-27.7054Q69.3336-27.1584 69.3649-26.4912Q69.3962-25.824 69.957-25.312L84.1309-11.1389Q85.1189-10.1288 86.2537-10.1288Q87.3886-10.1288 88.3774-11.1389L102.564-25.312Q103.09-25.824 103.132-26.4912Q103.174-27.1584 102.627-27.7054Q102.102-28.2303 101.442-28.1815Q100.781-28.1326 100.256-27.6077L95.3888-22.8027L87.9204-15.0352L87.9204-58.7067Q87.9204-63.9099 85.2524-66.5642Q82.5844-69.2184 77.3674-69.2184L41.9785-69.2184Q41.1644-69.2184 40.6837-68.7656Q40.2031-68.3128 40.2168-67.5529Z"/>
  </g>
  <g id="Ultralight-S" transform="matrix(1 0 0 1 503.52 696)">
   <path d="M10.1135-42.1494Q10.4645-41.7984 10.9043-41.8488Q11.3441-41.8991 11.7401-42.247L17.0555-47.5166L25.1793-55.9372L25.1793-11.5509Q25.1793-6.6246 27.7348-4.09317Q30.2902-1.56174 35.1784-1.56174L72.1832-1.56174Q72.6799-1.56174 73.0034-1.87645Q73.3269-2.19116 73.3231-2.67105Q73.32-3.10822 73-3.44582Q72.6799-3.78342 72.1832-3.78342L35.276-3.78342Q31.3675-3.78342 29.3823-5.76515Q27.3972-7.74689 27.3972-11.6653L27.3972-55.9441L35.5698-47.5166L40.8844-42.247Q41.2361-41.9449 41.6756-41.8716Q42.115-41.7984 42.5117-42.1494Q42.9047-42.5461 42.8577-42.9874Q42.8108-43.4288 42.4599-43.7767L27.7802-58.4526Q27.0844-59.1446 26.3107-59.1446Q25.5371-59.1446 24.8421-58.4526L10.1654-43.7767Q9.81445-43.4288 9.76562-42.9874Q9.7168-42.5461 10.1135-42.1494ZM39.0579-67.6453Q39.0579-67.2112 39.378-66.8736Q39.698-66.5359 40.1947-66.5359L77.1057-66.5359Q81.0135-66.5359 82.999-64.5523Q84.9846-62.5687 84.9846-58.654L84.9846-14.3753L76.8112-22.8027L71.4966-28.0685Q71.1456-28.3745 70.7058-28.4477Q70.266-28.521 69.915-28.1662Q69.5183-27.7733 69.5446-27.3319Q69.5709-26.8906 69.9677-26.5427L84.6436-11.8668Q85.2936-11.1748 86.0901-11.1748Q86.8866-11.1748 87.5359-11.8668L102.216-26.5427Q102.567-26.8906 102.614-27.3319Q102.661-27.7733 102.268-28.1662Q101.917-28.5179 101.477-28.4691Q101.038-28.4203 100.687-28.0685L95.3682-22.8027L87.2025-14.3791L87.2025-58.7685Q87.2025-63.6948 84.6676-66.2262Q82.1327-68.7576 77.2034-68.7576L40.1947-68.7576Q39.698-68.7576 39.3764-68.4429Q39.0549-68.1282 39.0579-67.6453Z"/>
  </g>
 </g>
</svg>
