<?xml version="1.0" encoding="UTF-8"?>
<!--Generator: Apple Native CoreSVG 175-->
<!DOCTYPE svg
PUBLIC "-//W3C//DTD SVG 1.1//EN"
       "http://www.w3.org/Graphics/SVG/1.1/DTD/svg11.dtd">
<svg version="1.1" xmlns="http://www.w3.org/2000/svg" xmlns:xlink="http://www.w3.org/1999/xlink" width="3300" height="2200">
 <!--glyph: "uni1000DC.medium", point size: 100.0, font version: "17.0d12e1", template writer version: "65.1"-->
 <style>.multicolor-0:systemGreenColor {fill:#28CD41;opacity:1.0}

.hierarchical-0:secondary {fill:#4D4D4D}
.hierarchical-1:primary {fill:#212121}

.SFSymbolsPreview28CD41 {fill:#28CD41;opacity:1.0}
</style>
 <g id="Notes">
  <rect height="2200" id="artboard" style="fill:white;opacity:1" width="3300" x="0" y="0"/>
  <line style="fill:none;stroke:black;opacity:1;stroke-width:0.5;" x1="263" x2="3036" y1="292" y2="292"/>
  <text style="stroke:none;fill:black;font-family:sans-serif;font-size:13;font-weight:bold;" transform="matrix(1 0 0 1 263 322)">Weight/Scale Variations</text>
  <text style="stroke:none;fill:black;font-family:sans-serif;font-size:13;text-anchor:middle;" transform="matrix(1 0 0 1 559.711 322)">Ultralight</text>
  <text style="stroke:none;fill:black;font-family:sans-serif;font-size:13;text-anchor:middle;" transform="matrix(1 0 0 1 856.422 322)">Thin</text>
  <text style="stroke:none;fill:black;font-family:sans-serif;font-size:13;text-anchor:middle;" transform="matrix(1 0 0 1 1153.13 322)">Light</text>
  <text style="stroke:none;fill:black;font-family:sans-serif;font-size:13;text-anchor:middle;" transform="matrix(1 0 0 1 1449.84 322)">Regular</text>
  <text style="stroke:none;fill:black;font-family:sans-serif;font-size:13;text-anchor:middle;" transform="matrix(1 0 0 1 1746.56 322)">Medium</text>
  <text style="stroke:none;fill:black;font-family:sans-serif;font-size:13;text-anchor:middle;" transform="matrix(1 0 0 1 2043.27 322)">Semibold</text>
  <text style="stroke:none;fill:black;font-family:sans-serif;font-size:13;text-anchor:middle;" transform="matrix(1 0 0 1 2339.98 322)">Bold</text>
  <text style="stroke:none;fill:black;font-family:sans-serif;font-size:13;text-anchor:middle;" transform="matrix(1 0 0 1 2636.69 322)">Heavy</text>
  <text style="stroke:none;fill:black;font-family:sans-serif;font-size:13;text-anchor:middle;" transform="matrix(1 0 0 1 2933.4 322)">Black</text>
  <line style="fill:none;stroke:black;opacity:1;stroke-width:0.5;" x1="263" x2="3036" y1="1903" y2="1903"/>
  <g transform="matrix(1 0 0 1 263 1933)">
   <path d="M9.24805 0.830078Q10.8691 0.830078 12.2949 0.214844Q13.7207-0.400391 14.8096-1.49414Q15.8984-2.58789 16.5186-4.01367Q17.1387-5.43945 17.1387-7.05078Q17.1387-8.66211 16.5186-10.0879Q15.8984-11.5137 14.8047-12.6074Q13.7109-13.7012 12.2852-14.3164Q10.8594-14.9316 9.23828-14.9316Q7.62695-14.9316 6.20117-14.3164Q4.77539-13.7012 3.69141-12.6074Q2.60742-11.5137 1.9873-10.0879Q1.36719-8.66211 1.36719-7.05078Q1.36719-5.43945 1.9873-4.01367Q2.60742-2.58789 3.69629-1.49414Q4.78516-0.400391 6.21094 0.214844Q7.63672 0.830078 9.24805 0.830078ZM9.24805-0.654297Q7.91992-0.654297 6.7627-1.14746Q5.60547-1.64062 4.73145-2.51953Q3.85742-3.39844 3.36426-4.56055Q2.87109-5.72266 2.87109-7.05078Q2.87109-8.37891 3.35938-9.54102Q3.84766-10.7031 4.72168-11.582Q5.5957-12.4609 6.75293-12.9541Q7.91016-13.4473 9.23828-13.4473Q10.5762-13.4473 11.7334-12.9541Q12.8906-12.4609 13.7695-11.582Q14.6484-10.7031 15.1465-9.54102Q15.6445-8.37891 15.6445-7.05078Q15.6445-5.72266 15.1514-4.56055Q14.6582-3.39844 13.7842-2.51953Q12.9102-1.64062 11.748-1.14746Q10.5859-0.654297 9.24805-0.654297ZM5.6543-7.05078Q5.6543-6.72852 5.85938-6.52832Q6.06445-6.32812 6.40625-6.32812L8.51562-6.32812L8.51562-4.20898Q8.51562-3.88672 8.71094-3.67676Q8.90625-3.4668 9.23828-3.4668Q9.56055-3.4668 9.77051-3.67676Q9.98047-3.88672 9.98047-4.20898L9.98047-6.32812L12.0898-6.32812Q12.4219-6.32812 12.627-6.52832Q12.832-6.72852 12.832-7.05078Q12.832-7.38281 12.627-7.58789Q12.4219-7.79297 12.0898-7.79297L9.98047-7.79297L9.98047-9.90234Q9.98047-10.2344 9.77051-10.4443Q9.56055-10.6543 9.23828-10.6543Q8.90625-10.6543 8.71094-10.4443Q8.51562-10.2344 8.51562-9.90234L8.51562-7.79297L6.40625-7.79297Q6.06445-7.79297 5.85938-7.58789Q5.6543-7.38281 5.6543-7.05078Z"/>
  </g>
  <g transform="matrix(1 0 0 1 281.867 1933)">
   <path d="M11.709 2.91016Q13.75 2.91016 15.5518 2.12891Q17.3535 1.34766 18.7305-0.0292969Q20.1074-1.40625 20.8887-3.20801Q21.6699-5.00977 21.6699-7.05078Q21.6699-9.0918 20.8887-10.8936Q20.1074-12.6953 18.7305-14.0723Q17.3535-15.4492 15.5469-16.2305Q13.7402-17.0117 11.6992-17.0117Q9.6582-17.0117 7.85645-16.2305Q6.05469-15.4492 4.68262-14.0723Q3.31055-12.6953 2.5293-10.8936Q1.74805-9.0918 1.74805-7.05078Q1.74805-5.00977 2.5293-3.20801Q3.31055-1.40625 4.6875-0.0292969Q6.06445 1.34766 7.86621 2.12891Q9.66797 2.91016 11.709 2.91016ZM11.709 1.25Q9.98047 1.25 8.47656 0.605469Q6.97266-0.0390625 5.83496-1.17676Q4.69727-2.31445 4.05762-3.81836Q3.41797-5.32227 3.41797-7.05078Q3.41797-8.7793 4.05762-10.2832Q4.69727-11.7871 5.83008-12.9297Q6.96289-14.0723 8.4668-14.7119Q9.9707-15.3516 11.6992-15.3516Q13.4277-15.3516 14.9316-14.7119Q16.4355-14.0723 17.5781-12.9297Q18.7207-11.7871 19.3652-10.2832Q20.0098-8.7793 20.0098-7.05078Q20.0098-5.32227 19.3701-3.81836Q18.7305-2.31445 17.5928-1.17676Q16.4551-0.0390625 14.9463 0.605469Q13.4375 1.25 11.709 1.25ZM7.17773-7.05078Q7.17773-6.69922 7.41211-6.47461Q7.64648-6.25 8.01758-6.25L10.8887-6.25L10.8887-3.36914Q10.8887-2.99805 11.1133-2.76855Q11.3379-2.53906 11.6895-2.53906Q12.0605-2.53906 12.29-2.76855Q12.5195-2.99805 12.5195-3.36914L12.5195-6.25L15.4004-6.25Q15.7715-6.25 16.001-6.47461Q16.2305-6.69922 16.2305-7.05078Q16.2305-7.42188 16.001-7.65137Q15.7715-7.88086 15.4004-7.88086L12.5195-7.88086L12.5195-10.752Q12.5195-11.1328 12.29-11.3623Q12.0605-11.5918 11.6895-11.5918Q11.3379-11.5918 11.1133-11.3574Q10.8887-11.123 10.8887-10.752L10.8887-7.88086L8.01758-7.88086Q7.63672-7.88086 7.40723-7.65137Q7.17773-7.42188 7.17773-7.05078Z"/>
  </g>
  <g transform="matrix(1 0 0 1 305.646 1933)">
   <path d="M14.9707 5.66406Q17.0605 5.66406 18.96 5.01465Q20.8594 4.36523 22.4512 3.19336Q24.043 2.02148 25.2197 0.429688Q26.3965-1.16211 27.0459-3.06641Q27.6953-4.9707 27.6953-7.05078Q27.6953-9.14062 27.0459-11.04Q26.3965-12.9395 25.2197-14.5312Q24.043-16.123 22.4512-17.2998Q20.8594-18.4766 18.9551-19.126Q17.0508-19.7754 14.9609-19.7754Q12.8711-19.7754 10.9717-19.126Q9.07227-18.4766 7.48535-17.2998Q5.89844-16.123 4.72168-14.5312Q3.54492-12.9395 2.90039-11.04Q2.25586-9.14062 2.25586-7.05078Q2.25586-4.9707 2.90527-3.06641Q3.55469-1.16211 4.72656 0.429688Q5.89844 2.02148 7.49023 3.19336Q9.08203 4.36523 10.9814 5.01465Q12.8809 5.66406 14.9707 5.66406ZM14.9707 3.84766Q13.1641 3.84766 11.5283 3.2959Q9.89258 2.74414 8.53516 1.74805Q7.17773 0.751953 6.17676-0.610352Q5.17578-1.97266 4.62891-3.6084Q4.08203-5.24414 4.08203-7.05078Q4.08203-8.86719 4.62891-10.5029Q5.17578-12.1387 6.17188-13.501Q7.16797-14.8633 8.52539-15.8594Q9.88281-16.8555 11.5186-17.4023Q13.1543-17.9492 14.9609-17.9492Q16.7773-17.9492 18.4131-17.4023Q20.0488-16.8555 21.4111-15.8594Q22.7734-14.8633 23.7695-13.501Q24.7656-12.1387 25.3174-10.5029Q25.8691-8.86719 25.8691-7.05078Q25.8789-5.24414 25.332-3.6084Q24.7852-1.97266 23.7842-0.610352Q22.7832 0.751953 21.4209 1.74805Q20.0586 2.74414 18.4229 3.2959Q16.7871 3.84766 14.9707 3.84766ZM9.19922-7.05078Q9.19922-6.66992 9.45801-6.4209Q9.7168-6.17188 10.1172-6.17188L14.0625-6.17188L14.0625-2.2168Q14.0625-1.81641 14.3115-1.55762Q14.5605-1.29883 14.9512-1.29883Q15.3516-1.29883 15.6104-1.55273Q15.8691-1.80664 15.8691-2.2168L15.8691-6.17188L19.8242-6.17188Q20.2246-6.17188 20.4785-6.4209Q20.7324-6.66992 20.7324-7.05078Q20.7324-7.46094 20.4785-7.71484Q20.2246-7.96875 19.8242-7.96875L15.8691-7.96875L15.8691-11.9141Q15.8691-12.3242 15.6104-12.583Q15.3516-12.8418 14.9512-12.8418Q14.5605-12.8418 14.3115-12.583Q14.0625-12.3242 14.0625-11.9141L14.0625-7.96875L10.1172-7.96875Q9.70703-7.96875 9.45312-7.71484Q9.19922-7.46094 9.19922-7.05078Z"/>
  </g>
  <text style="stroke:none;fill:black;font-family:sans-serif;font-size:13;font-weight:bold;" transform="matrix(1 0 0 1 263 1953)">Design Variations</text>
  <text style="stroke:none;fill:black;font-family:sans-serif;font-size:13;" transform="matrix(1 0 0 1 263 1971)">Symbols are supported in up to nine weights and three scales.</text>
  <text style="stroke:none;fill:black;font-family:sans-serif;font-size:13;" transform="matrix(1 0 0 1 263 1989)">For optimal layout with text and other symbols, vertically align</text>
  <text style="stroke:none;fill:black;font-family:sans-serif;font-size:13;" transform="matrix(1 0 0 1 263 2007)">symbols with the adjacent text.</text>
  <line style="fill:none;stroke:#00AEEF;stroke-width:0.5;opacity:1.0;" x1="776" x2="776" y1="1919" y2="1933"/>
  <g transform="matrix(1 0 0 1 776 1933)">
   <path d="M3.31055 0.15625Q3.70117 0.15625 3.91602-0.00976562Q4.13086-0.175781 4.26758-0.585938L5.52734-4.0332L11.2891-4.0332L12.5488-0.585938Q12.6855-0.175781 12.9004-0.00976562Q13.1152 0.15625 13.4961 0.15625Q13.8867 0.15625 14.1162-0.0585938Q14.3457-0.273438 14.3457-0.644531Q14.3457-0.869141 14.2383-1.17188L9.6582-13.3691Q9.48242-13.8184 9.17969-14.043Q8.87695-14.2676 8.4082-14.2676Q7.5-14.2676 7.17773-13.3789L2.59766-1.16211Q2.49023-0.859375 2.49023-0.634766Q2.49023-0.263672 2.70996-0.0537109Q2.92969 0.15625 3.31055 0.15625ZM6.00586-5.51758L8.37891-12.0898L8.42773-12.0898L10.8008-5.51758Z"/>
  </g>
  <line style="fill:none;stroke:#00AEEF;stroke-width:0.5;opacity:1.0;" x1="793.197" x2="793.197" y1="1919" y2="1933"/>
  <text style="stroke:none;fill:black;font-family:sans-serif;font-size:13;font-weight:bold;" transform="matrix(1 0 0 1 776 1953)">Margins</text>
  <text style="stroke:none;fill:black;font-family:sans-serif;font-size:13;" transform="matrix(1 0 0 1 776 1971)">Leading and trailing margins on the left and right side of each symbol</text>
  <text style="stroke:none;fill:black;font-family:sans-serif;font-size:13;" transform="matrix(1 0 0 1 776 1989)">can be adjusted by modifying the x-location of the margin guidelines.</text>
  <text style="stroke:none;fill:black;font-family:sans-serif;font-size:13;" transform="matrix(1 0 0 1 776 2007)">Modifications are automatically applied proportionally to all</text>
  <text style="stroke:none;fill:black;font-family:sans-serif;font-size:13;" transform="matrix(1 0 0 1 776 2025)">scales and weights.</text>
  <g transform="matrix(1 0 0 1 1289 1933)">
   <path d="M2.8418 1.86523L4.54102 3.57422Q5.18555 4.22852 5.90332 4.17969Q6.62109 4.13086 7.31445 3.35938L18.0078-8.42773L17.041-9.4043L6.42578 2.27539Q6.16211 2.57812 5.89355 2.61719Q5.625 2.65625 5.27344 2.30469L4.10156 1.14258Q3.75 0.791016 3.79395 0.522461Q3.83789 0.253906 4.14062-0.0195312L15.6152-10.8203L14.6387-11.7871L3.04688-0.898438Q2.30469-0.214844 2.25098 0.498047Q2.19727 1.21094 2.8418 1.86523ZM9.25781-16.3281Q8.94531-16.0254 8.90625-15.6348Q8.86719-15.2441 9.04297-14.9512Q9.21875-14.6777 9.55566-14.541Q9.89258-14.4043 10.3809-14.5215Q11.4746-14.7754 12.5977-14.7314Q13.7207-14.6875 14.7949-13.9844L14.209-12.5293Q13.9551-11.9043 14.0674-11.4404Q14.1797-10.9766 14.5801-10.5664L16.875-8.25195Q17.2363-7.88086 17.5781-7.82227Q17.9199-7.76367 18.3398-7.8418L19.4043-8.03711L20.0684-7.36328L20.0293-6.80664Q20-6.43555 20.1221-6.12305Q20.2441-5.81055 20.6055-5.44922L21.3672-4.70703Q21.7285-4.3457 22.1533-4.33105Q22.5781-4.31641 22.9297-4.66797L25.8398-7.58789Q26.1914-7.93945 26.1816-8.35449Q26.1719-8.76953 25.8105-9.13086L25.0391-9.89258Q24.6875-10.2539 24.3799-10.3857Q24.0723-10.5176 23.7109-10.4883L23.1348-10.4395L22.4902-11.0742L22.7344-12.1973Q22.832-12.6172 22.6953-12.9834Q22.5586-13.3496 22.1191-13.7891L19.9219-15.9766Q18.6719-17.2168 17.2607-17.8369Q15.8496-18.457 14.4189-18.4814Q12.9883-18.5059 11.665-17.959Q10.3418-17.4121 9.25781-16.3281ZM10.752-15.957Q11.6602-16.6211 12.7002-16.9043Q13.7402-17.1875 14.8047-17.085Q15.8691-16.9824 16.8701-16.5137Q17.8711-16.0449 18.7012-15.2051L21.1328-12.793Q21.3086-12.6172 21.3525-12.4512Q21.3965-12.2852 21.3379-12.0312L21.0156-10.5469L22.5195-9.0625L23.5059-9.12109Q23.6914-9.13086 23.7891-9.09668Q23.8867-9.0625 24.0332-8.91602L24.6094-8.33984L22.168-5.89844L21.5918-6.47461Q21.4453-6.62109 21.4062-6.71875Q21.3672-6.81641 21.377-7.01172L21.4453-7.98828L19.9512-9.47266L18.4277-9.21875Q18.1836-9.16992 18.042-9.2041Q17.9004-9.23828 17.7148-9.41406L15.7129-11.416Q15.5176-11.5918 15.4932-11.7529Q15.4688-11.9141 15.5859-12.1875L16.4648-14.2773Q15.293-15.3711 13.8281-15.791Q12.3633-16.2109 10.8398-15.7617Q10.7227-15.7324 10.6885-15.8057Q10.6543-15.8789 10.752-15.957Z"/>
  </g>
  <text style="stroke:none;fill:black;font-family:sans-serif;font-size:13;font-weight:bold;" transform="matrix(1 0 0 1 1289 1953)">Exporting</text>
  <text style="stroke:none;fill:black;font-family:sans-serif;font-size:13;" transform="matrix(1 0 0 1 1289 1971)">Symbols should be outlined when exporting to ensure the</text>
  <text style="stroke:none;fill:black;font-family:sans-serif;font-size:13;" transform="matrix(1 0 0 1 1289 1989)">design is preserved when submitting to Xcode.</text>
  <text id="template-version" style="stroke:none;fill:black;font-family:sans-serif;font-size:13;text-anchor:end;" transform="matrix(1 0 0 1 3036 1933)">Template v.3.0</text>
  <text style="stroke:none;fill:black;font-family:sans-serif;font-size:13;text-anchor:end;" transform="matrix(1 0 0 1 3036 1951)">Requires Xcode 13 or greater</text>
  <text id="descriptive-name" style="stroke:none;fill:black;font-family:sans-serif;font-size:13;text-anchor:end;" transform="matrix(1 0 0 1 3036 1969)">Generated from plus.square</text>
  <text style="stroke:none;fill:black;font-family:sans-serif;font-size:13;text-anchor:end;" transform="matrix(1 0 0 1 3036 1987)">Typeset at 100 points</text>
  <text style="stroke:none;fill:black;font-family:sans-serif;font-size:13;" transform="matrix(1 0 0 1 263 726)">Small</text>
  <text style="stroke:none;fill:black;font-family:sans-serif;font-size:13;" transform="matrix(1 0 0 1 263 1156)">Medium</text>
  <text style="stroke:none;fill:black;font-family:sans-serif;font-size:13;" transform="matrix(1 0 0 1 263 1586)">Large</text>
 </g>
 <g id="Guides">
  <g id="H-reference" style="fill:#27AAE1;stroke:none;" transform="matrix(1 0 0 1 339 696)">
   <path d="M0.993347 0L3.6377 0L29.3282-67.1326L30.0301-67.1326L30.0301-70.459L28.1227-70.459ZM11.6882-24.4797L46.9818-24.4797L46.2311-26.7288L12.4382-26.7288ZM55.1193 0L57.7637 0L30.6381-70.459L29.4327-70.459L29.4327-67.1326Z"/>
  </g>
  <line id="Baseline-S" style="fill:none;stroke:#27AAE1;opacity:1;stroke-width:0.5;" x1="263" x2="3036" y1="696" y2="696"/>
  <line id="Capline-S" style="fill:none;stroke:#27AAE1;opacity:1;stroke-width:0.5;" x1="263" x2="3036" y1="625.541" y2="625.541"/>
  <g id="H-reference" style="fill:#27AAE1;stroke:none;" transform="matrix(1 0 0 1 339 1126)">
   <path d="M0.993347 0L3.6377 0L29.3282-67.1326L30.0301-67.1326L30.0301-70.459L28.1227-70.459ZM11.6882-24.4797L46.9818-24.4797L46.2311-26.7288L12.4382-26.7288ZM55.1193 0L57.7637 0L30.6381-70.459L29.4327-70.459L29.4327-67.1326Z"/>
  </g>
  <line id="Baseline-M" style="fill:none;stroke:#27AAE1;opacity:1;stroke-width:0.5;" x1="263" x2="3036" y1="1126" y2="1126"/>
  <line id="Capline-M" style="fill:none;stroke:#27AAE1;opacity:1;stroke-width:0.5;" x1="263" x2="3036" y1="1055.54" y2="1055.54"/>
  <g id="H-reference" style="fill:#27AAE1;stroke:none;" transform="matrix(1 0 0 1 339 1556)">
   <path d="M0.993347 0L3.6377 0L29.3282-67.1326L30.0301-67.1326L30.0301-70.459L28.1227-70.459ZM11.6882-24.4797L46.9818-24.4797L46.2311-26.7288L12.4382-26.7288ZM55.1193 0L57.7637 0L30.6381-70.459L29.4327-70.459L29.4327-67.1326Z"/>
  </g>
  <line id="Baseline-L" style="fill:none;stroke:#27AAE1;opacity:1;stroke-width:0.5;" x1="263" x2="3036" y1="1556" y2="1556"/>
  <line id="Capline-L" style="fill:none;stroke:#27AAE1;opacity:1;stroke-width:0.5;" x1="263" x2="3036" y1="1485.54" y2="1485.54"/>
  <line id="left-margin-Ultralight-S" style="fill:none;stroke:#00AEEF;stroke-width:0.5;opacity:1.0;" x1="516.35" x2="516.35" y1="600.785" y2="720.121"/>
  <line id="right-margin-Ultralight-S" style="fill:none;stroke:#00AEEF;stroke-width:0.5;opacity:1.0;" x1="603.073" x2="603.073" y1="600.785" y2="720.121"/>
  <line id="left-margin-Thin-S" style="fill:none;stroke:#00AEEF;stroke-width:0.5;opacity:1.0;" x1="812.615" x2="812.615" y1="600.785" y2="720.121"/>
  <line id="right-margin-Thin-S" style="fill:none;stroke:#00AEEF;stroke-width:0.5;opacity:1.0;" x1="900.23" x2="900.23" y1="600.785" y2="720.121"/>
  <line id="left-margin-Light-S" style="fill:none;stroke:#00AEEF;stroke-width:0.5;opacity:1.0;" x1="1108.45" x2="1108.45" y1="600.785" y2="720.121"/>
  <line id="right-margin-Light-S" style="fill:none;stroke:#00AEEF;stroke-width:0.5;opacity:1.0;" x1="1197.81" x2="1197.81" y1="600.785" y2="720.121"/>
  <line id="left-margin-Regular-S" style="fill:none;stroke:#00AEEF;stroke-width:0.5;opacity:1.0;" x1="1404.51" x2="1404.51" y1="600.785" y2="720.121"/>
  <line id="right-margin-Regular-S" style="fill:none;stroke:#00AEEF;stroke-width:0.5;opacity:1.0;" x1="1495.18" x2="1495.18" y1="600.785" y2="720.121"/>
  <line id="left-margin-Medium-S" style="fill:none;stroke:#00AEEF;stroke-width:0.5;opacity:1.0;" x1="1700.76" x2="1700.76" y1="600.785" y2="720.121"/>
  <line id="right-margin-Medium-S" style="fill:none;stroke:#00AEEF;stroke-width:0.5;opacity:1.0;" x1="1792.35" x2="1792.35" y1="600.785" y2="720.121"/>
  <line id="left-margin-Semibold-S" style="fill:none;stroke:#00AEEF;stroke-width:0.5;opacity:1.0;" x1="1997.11" x2="1997.11" y1="600.785" y2="720.121"/>
  <line id="right-margin-Semibold-S" style="fill:none;stroke:#00AEEF;stroke-width:0.5;opacity:1.0;" x1="2089.42" x2="2089.42" y1="600.785" y2="720.121"/>
  <line id="left-margin-Bold-S" style="fill:none;stroke:#00AEEF;stroke-width:0.5;opacity:1.0;" x1="2293.36" x2="2293.36" y1="600.785" y2="720.121"/>
  <line id="right-margin-Bold-S" style="fill:none;stroke:#00AEEF;stroke-width:0.5;opacity:1.0;" x1="2386.6" x2="2386.6" y1="600.785" y2="720.121"/>
  <line id="left-margin-Heavy-S" style="fill:none;stroke:#00AEEF;stroke-width:0.5;opacity:1.0;" x1="2589.39" x2="2589.39" y1="600.785" y2="720.121"/>
  <line id="right-margin-Heavy-S" style="fill:none;stroke:#00AEEF;stroke-width:0.5;opacity:1.0;" x1="2683.98" x2="2683.98" y1="600.785" y2="720.121"/>
  <line id="left-margin-Black-S" style="fill:none;stroke:#00AEEF;stroke-width:0.5;opacity:1.0;" x1="2885.5" x2="2885.5" y1="600.785" y2="720.121"/>
  <line id="right-margin-Black-S" style="fill:none;stroke:#00AEEF;stroke-width:0.5;opacity:1.0;" x1="2981.3" x2="2981.3" y1="600.785" y2="720.121"/>
  <line id="left-margin-Ultralight-M" style="fill:none;stroke:#00AEEF;stroke-width:0.5;opacity:1.0;" x1="504.539" x2="504.539" y1="1030.79" y2="1150.12"/>
  <line id="right-margin-Ultralight-M" style="fill:none;stroke:#00AEEF;stroke-width:0.5;opacity:1.0;" x1="614.883" x2="614.883" y1="1030.79" y2="1150.12"/>
  <line id="left-margin-Thin-M" style="fill:none;stroke:#00AEEF;stroke-width:0.5;opacity:1.0;" x1="800.747" x2="800.747" y1="1030.79" y2="1150.12"/>
  <line id="right-margin-Thin-M" style="fill:none;stroke:#00AEEF;stroke-width:0.5;opacity:1.0;" x1="912.097" x2="912.097" y1="1030.79" y2="1150.12"/>
  <line id="left-margin-Light-M" style="fill:none;stroke:#00AEEF;stroke-width:0.5;opacity:1.0;" x1="1096.48" x2="1096.48" y1="1030.79" y2="1150.12"/>
  <line id="right-margin-Light-M" style="fill:none;stroke:#00AEEF;stroke-width:0.5;opacity:1.0;" x1="1209.79" x2="1209.79" y1="1030.79" y2="1150.12"/>
  <line id="left-margin-Regular-M" style="fill:none;stroke:#00AEEF;stroke-width:0.5;opacity:1.0;" x1="1392.45" x2="1392.45" y1="1030.79" y2="1150.12"/>
  <line id="right-margin-Regular-M" style="fill:none;stroke:#00AEEF;stroke-width:0.5;opacity:1.0;" x1="1507.24" x2="1507.24" y1="1030.79" y2="1150.12"/>
  <line id="left-margin-Medium-M" style="fill:none;stroke:#00AEEF;stroke-width:0.5;opacity:1.0;" x1="1688.53" x2="1688.53" y1="1030.79" y2="1150.12"/>
  <line id="right-margin-Medium-M" style="fill:none;stroke:#00AEEF;stroke-width:0.5;opacity:1.0;" x1="1804.58" x2="1804.58" y1="1030.79" y2="1150.12"/>
  <line id="left-margin-Semibold-M" style="fill:none;stroke:#00AEEF;stroke-width:0.5;opacity:1.0;" x1="1984.77" x2="1984.77" y1="1030.79" y2="1150.12"/>
  <line id="right-margin-Semibold-M" style="fill:none;stroke:#00AEEF;stroke-width:0.5;opacity:1.0;" x1="2101.77" x2="2101.77" y1="1030.79" y2="1150.12"/>
  <line id="left-margin-Bold-M" style="fill:none;stroke:#00AEEF;stroke-width:0.5;opacity:1.0;" x1="2280.85" x2="2280.85" y1="1030.79" y2="1150.12"/>
  <line id="right-margin-Bold-M" style="fill:none;stroke:#00AEEF;stroke-width:0.5;opacity:1.0;" x1="2399.11" x2="2399.11" y1="1030.79" y2="1150.12"/>
  <line id="left-margin-Heavy-M" style="fill:none;stroke:#00AEEF;stroke-width:0.5;opacity:1.0;" x1="2576.64" x2="2576.64" y1="1030.79" y2="1150.12"/>
  <line id="right-margin-Heavy-M" style="fill:none;stroke:#00AEEF;stroke-width:0.5;opacity:1.0;" x1="2696.73" x2="2696.73" y1="1030.79" y2="1150.12"/>
  <line id="left-margin-Black-M" style="fill:none;stroke:#00AEEF;stroke-width:0.5;opacity:1.0;" x1="2872.54" x2="2872.54" y1="1030.79" y2="1150.12"/>
  <line id="right-margin-Black-M" style="fill:none;stroke:#00AEEF;stroke-width:0.5;opacity:1.0;" x1="2994.26" x2="2994.26" y1="1030.79" y2="1150.12"/>
  <line id="left-margin-Ultralight-L" style="fill:none;stroke:#00AEEF;stroke-width:0.5;opacity:1.0;" x1="488.747" x2="488.747" y1="1460.79" y2="1580.12"/>
  <line id="right-margin-Ultralight-L" style="fill:none;stroke:#00AEEF;stroke-width:0.5;opacity:1.0;" x1="630.675" x2="630.675" y1="1460.79" y2="1580.12"/>
  <line id="left-margin-Thin-L" style="fill:none;stroke:#00AEEF;stroke-width:0.5;opacity:1.0;" x1="784.894" x2="784.894" y1="1460.79" y2="1580.12"/>
  <line id="right-margin-Thin-L" style="fill:none;stroke:#00AEEF;stroke-width:0.5;opacity:1.0;" x1="927.951" x2="927.951" y1="1460.79" y2="1580.12"/>
  <line id="left-margin-Light-L" style="fill:none;stroke:#00AEEF;stroke-width:0.5;opacity:1.0;" x1="1080.5" x2="1080.5" y1="1460.79" y2="1580.12"/>
  <line id="right-margin-Light-L" style="fill:none;stroke:#00AEEF;stroke-width:0.5;opacity:1.0;" x1="1225.76" x2="1225.76" y1="1460.79" y2="1580.12"/>
  <line id="left-margin-Regular-L" style="fill:none;stroke:#00AEEF;stroke-width:0.5;opacity:1.0;" x1="1376.38" x2="1376.38" y1="1460.79" y2="1580.12"/>
  <line id="right-margin-Regular-L" style="fill:none;stroke:#00AEEF;stroke-width:0.5;opacity:1.0;" x1="1523.31" x2="1523.31" y1="1460.79" y2="1580.12"/>
  <line id="left-margin-Medium-L" style="fill:none;stroke:#00AEEF;stroke-width:0.5;opacity:1.0;" x1="1672.32" x2="1672.32" y1="1460.79" y2="1580.12"/>
  <line id="right-margin-Medium-L" style="fill:none;stroke:#00AEEF;stroke-width:0.5;opacity:1.0;" x1="1820.8" x2="1820.8" y1="1460.79" y2="1580.12"/>
  <line id="left-margin-Semibold-L" style="fill:none;stroke:#00AEEF;stroke-width:0.5;opacity:1.0;" x1="1968.43" x2="1968.43" y1="1460.79" y2="1580.12"/>
  <line id="right-margin-Semibold-L" style="fill:none;stroke:#00AEEF;stroke-width:0.5;opacity:1.0;" x1="2118.1" x2="2118.1" y1="1460.79" y2="1580.12"/>
  <line id="left-margin-Bold-L" style="fill:none;stroke:#00AEEF;stroke-width:0.5;opacity:1.0;" x1="2264.36" x2="2264.36" y1="1460.79" y2="1580.12"/>
  <line id="right-margin-Bold-L" style="fill:none;stroke:#00AEEF;stroke-width:0.5;opacity:1.0;" x1="2415.6" x2="2415.6" y1="1460.79" y2="1580.12"/>
  <line id="left-margin-Heavy-L" style="fill:none;stroke:#00AEEF;stroke-width:0.5;opacity:1.0;" x1="2559.93" x2="2559.93" y1="1460.79" y2="1580.12"/>
  <line id="right-margin-Heavy-L" style="fill:none;stroke:#00AEEF;stroke-width:0.5;opacity:1.0;" x1="2713.45" x2="2713.45" y1="1460.79" y2="1580.12"/>
  <line id="left-margin-Black-L" style="fill:none;stroke:#00AEEF;stroke-width:0.5;opacity:1.0;" x1="2855.62" x2="2855.62" y1="1460.79" y2="1580.12"/>
  <line id="right-margin-Black-L" style="fill:none;stroke:#00AEEF;stroke-width:0.5;opacity:1.0;" x1="3011.18" x2="3011.18" y1="1460.79" y2="1580.12"/>
 </g>
 <g id="Symbols">
  <g id="Black-L" transform="matrix(1 0 0 1 2855.62 1556)">
   <path class="multicolor-0:systemGreenColor hierarchical-0:secondary SFSymbolsPreview28CD41" d="M39.9902 26.5137L115.576 26.5137Q127.002 26.5137 133.252 20.3125Q139.502 14.1113 139.502 2.68555L139.502-73.0957Q139.502-84.4727 133.252-90.6738Q127.002-96.875 115.576-96.875L39.9902-96.875Q28.5645-96.875 22.3145-90.6738Q16.0645-84.4727 16.0645-73.0957L16.0645 2.68555Q16.0645 14.1113 22.3145 20.3125Q28.5645 26.5137 39.9902 26.5137ZM42.6758 6.29883Q39.5508 6.29883 37.9395 4.78516Q36.3281 3.27148 36.3281-0.146484L36.3281-70.2148Q36.3281-73.6328 37.9395-75.1465Q39.5508-76.6602 42.6758-76.6602L112.842-76.6602Q116.016-76.6602 117.627-75.1465Q119.238-73.6328 119.238-70.2148L119.238-0.146484Q119.238 3.27148 117.627 4.78516Q116.016 6.29883 112.842 6.29883Z"/>
   <path class="multicolor-0:systemGreenColor hierarchical-1:primary SFSymbolsPreview28CD41" d="M48.877-35.2539Q48.877-31.7383 51.1475-29.4189Q53.418-27.0996 56.8848-27.0996L69.5801-27.0996L69.5801-14.3555Q69.5801-10.9375 71.9238-8.66699Q74.2676-6.39648 77.7832-6.39648Q81.2988-6.39648 83.6426-8.66699Q85.9863-10.9375 85.9863-14.3555L85.9863-27.0996L98.7305-27.0996Q102.148-27.0996 104.419-29.4189Q106.689-31.7383 106.689-35.2539Q106.689-38.8184 104.419-41.1621Q102.148-43.5059 98.7305-43.5059L85.9863-43.5059L85.9863-56.2012Q85.9863-59.668 83.6426-61.9385Q81.2988-64.209 77.7832-64.209Q74.2676-64.209 71.9238-61.9385Q69.5801-59.668 69.5801-56.2012L69.5801-43.5059L56.8848-43.5059Q53.418-43.5059 51.1475-41.1621Q48.877-38.8184 48.877-35.2539Z"/>
  </g>
  <g id="Heavy-L" transform="matrix(1 0 0 1 2559.93 1556)">
   <path class="multicolor-0:systemGreenColor hierarchical-0:secondary SFSymbolsPreview28CD41" d="M38.8184 25.4883L114.697 25.4883Q125.684 25.4883 131.567 19.6289Q137.451 13.7695 137.451 2.88086L137.451-73.2422Q137.451-84.1309 131.567-89.9902Q125.684-95.8496 114.697-95.8496L38.8184-95.8496Q27.8809-95.8496 21.9727-89.9902Q16.0645-84.1309 16.0645-73.2422L16.0645 2.88086Q16.0645 13.8184 21.9727 19.6533Q27.8809 25.4883 38.8184 25.4883ZM40.918 8.00781Q37.3047 8.00781 35.4492 6.22559Q33.5938 4.44336 33.5938 0.585938L33.5938-70.9473Q33.5938-74.8047 35.4492-76.5869Q37.3047-78.3691 40.918-78.3691L112.549-78.3691Q116.162-78.3691 118.042-76.5869Q119.922-74.8047 119.922-70.9473L119.922 0.585938Q119.922 4.44336 118.042 6.22559Q116.162 8.00781 112.549 8.00781Z"/>
   <path class="multicolor-0:systemGreenColor hierarchical-1:primary SFSymbolsPreview28CD41" d="M47.8516-35.2539Q47.8516-32.1289 49.9023-30.0537Q51.9531-27.9785 55.0293-27.9785L69.3848-27.9785L69.3848-13.5742Q69.3848-10.498 71.4844-8.44727Q73.584-6.39648 76.709-6.39648Q79.8828-6.39648 81.9824-8.44727Q84.082-10.498 84.082-13.5742L84.082-27.9785L98.4863-27.9785Q101.562-27.9785 103.589-30.0537Q105.615-32.1289 105.615-35.2539Q105.615-38.4766 103.589-40.5518Q101.562-42.627 98.4863-42.627L84.082-42.627L84.082-56.9824Q84.082-60.1074 81.9824-62.1582Q79.8828-64.209 76.709-64.209Q73.584-64.209 71.4844-62.1582Q69.3848-60.1074 69.3848-56.9824L69.3848-42.627L55.0293-42.627Q51.9043-42.627 49.8779-40.5518Q47.8516-38.4766 47.8516-35.2539Z"/>
  </g>
  <g id="Bold-L" transform="matrix(1 0 0 1 2264.36 1556)">
   <path class="multicolor-0:systemGreenColor hierarchical-0:secondary SFSymbolsPreview28CD41" d="M37.5488 24.3652L113.721 24.3652Q124.17 24.3652 129.688 18.8965Q135.205 13.4277 135.205 3.07617L135.205-73.4375Q135.205-83.7891 129.688-89.2578Q124.17-94.7266 113.721-94.7266L37.5488-94.7266Q27.0996-94.7266 21.582-89.2578Q16.0645-83.7891 16.0645-73.4375L16.0645 3.07617Q16.0645 13.4766 21.582 18.9209Q27.0996 24.3652 37.5488 24.3652ZM38.9648 9.96094Q34.8633 9.96094 32.6904 7.86133Q30.5176 5.76172 30.5176 1.41602L30.5176-71.7773Q30.5176-76.0742 32.6904-78.1738Q34.8633-80.2734 38.9648-80.2734L112.256-80.2734Q116.357-80.2734 118.555-78.1738Q120.752-76.0742 120.752-71.7773L120.752 1.41602Q120.752 5.76172 118.555 7.86133Q116.357 9.96094 112.256 9.96094Z"/>
   <path class="multicolor-0:systemGreenColor hierarchical-1:primary SFSymbolsPreview28CD41" d="M46.7773-35.2539Q46.7773-32.5684 48.5596-30.7861Q50.3418-29.0039 53.0762-29.0039L69.2871-29.0039L69.2871-12.7441Q69.2871-10.0098 71.0938-8.22754Q72.9004-6.44531 75.6348-6.44531Q78.3691-6.44531 80.2002-8.22754Q82.0312-10.0098 82.0312-12.7441L82.0312-29.0039L98.291-29.0039Q100.977-29.0039 102.759-30.7861Q104.541-32.5684 104.541-35.2539Q104.541-38.0859 102.759-39.8926Q100.977-41.6992 98.291-41.6992L82.0312-41.6992L82.0312-57.9102Q82.0312-60.6445 80.2002-62.4268Q78.3691-64.209 75.6348-64.209Q72.9004-64.209 71.0938-62.4268Q69.2871-60.6445 69.2871-57.9102L69.2871-41.6992L53.0762-41.6992Q50.3418-41.6992 48.5596-39.8926Q46.7773-38.0859 46.7773-35.2539Z"/>
  </g>
  <g id="Semibold-L" transform="matrix(1 0 0 1 1968.43 1556)">
   <path class="multicolor-0:systemGreenColor hierarchical-0:secondary SFSymbolsPreview28CD41" d="M36.6211 23.584L112.988 23.584Q123.145 23.584 128.369 18.3838Q133.594 13.1836 133.594 3.17383L133.594-73.5352Q133.594-83.4961 128.369-88.6963Q123.145-93.8965 112.988-93.8965L36.6211-93.8965Q26.5625-93.8965 21.3135-88.7207Q16.0645-83.5449 16.0645-73.5352L16.0645 3.17383Q16.0645 13.2324 21.3135 18.4082Q26.5625 23.584 36.6211 23.584ZM37.5977 11.2793Q33.1055 11.2793 30.7617 8.95996Q28.418 6.64062 28.418 2.00195L28.418-72.3145Q28.418-76.9531 30.7617-79.2725Q33.1055-81.5918 37.5977-81.5918L112.061-81.5918Q116.504-81.5918 118.896-79.2725Q121.289-76.9531 121.289-72.3145L121.289 2.00195Q121.289 6.64062 118.896 8.95996Q116.504 11.2793 112.061 11.2793Z"/>
   <path class="multicolor-0:systemGreenColor hierarchical-1:primary SFSymbolsPreview28CD41" d="M45.9961-35.2539Q45.9961-32.8613 47.6074-31.2744Q49.2188-29.6875 51.6602-29.6875L69.1406-29.6875L69.1406-12.1094Q69.1406-9.66797 70.752-8.05664Q72.3633-6.44531 74.8047-6.44531Q77.2949-6.44531 78.9062-8.03223Q80.5176-9.61914 80.5176-12.1094L80.5176-29.6875L98.0957-29.6875Q100.537-29.6875 102.124-31.2744Q103.711-32.8613 103.711-35.2539Q103.711-37.793 102.124-39.4043Q100.537-41.0156 98.0957-41.0156L80.5176-41.0156L80.5176-58.4961Q80.5176-60.9863 78.9062-62.5977Q77.2949-64.209 74.8047-64.209Q72.3633-64.209 70.752-62.5977Q69.1406-60.9863 69.1406-58.4961L69.1406-41.0156L51.6602-41.0156Q49.1699-41.0156 47.583-39.4043Q45.9961-37.793 45.9961-35.2539Z"/>
  </g>
  <g id="Medium-L" transform="matrix(1 0 0 1 1672.32 1556)">
   <path class="multicolor-0:systemGreenColor hierarchical-0:secondary SFSymbolsPreview28CD41" d="M35.9375 22.998L112.5 22.998Q122.363 22.998 127.393 17.9932Q132.422 12.9883 132.422 3.27148L132.422-73.6328Q132.422-83.3008 127.393-88.3057Q122.363-93.3105 112.5-93.3105L35.9375-93.3105Q26.1719-93.3105 21.1182-88.3301Q16.0645-83.3496 16.0645-73.6328L16.0645 3.27148Q16.0645 13.0371 21.1182 18.0176Q26.1719 22.998 35.9375 22.998ZM36.5723 12.2559Q31.8359 12.2559 29.3213 9.79004Q26.8066 7.32422 26.8066 2.39258L26.8066-72.7539Q26.8066-77.6367 29.3213-80.1025Q31.8359-82.5684 36.5723-82.5684L111.865-82.5684Q116.553-82.5684 119.116-80.1025Q121.68-77.6367 121.68-72.7539L121.68 2.39258Q121.68 7.32422 119.116 9.79004Q116.553 12.2559 111.865 12.2559Z"/>
   <path class="multicolor-0:systemGreenColor hierarchical-1:primary SFSymbolsPreview28CD41" d="M45.4102-35.2539Q45.4102-33.0566 46.875-31.6162Q48.3398-30.1758 50.6348-30.1758L69.0918-30.1758L69.0918-11.6699Q69.0918-9.42383 70.5322-7.95898Q71.9727-6.49414 74.2188-6.49414Q76.4648-6.49414 77.9541-7.93457Q79.4434-9.375 79.4434-11.6699L79.4434-30.1758L97.9492-30.1758Q100.195-30.1758 101.66-31.6162Q103.125-33.0566 103.125-35.2539Q103.125-37.5977 101.66-39.0381Q100.195-40.4785 97.9492-40.4785L79.4434-40.4785L79.4434-58.9844Q79.4434-61.2793 77.9541-62.7441Q76.4648-64.209 74.2188-64.209Q71.9727-64.209 70.5322-62.7441Q69.0918-61.2793 69.0918-58.9844L69.0918-40.4785L50.6348-40.4785Q48.291-40.4785 46.8506-39.0381Q45.4102-37.5977 45.4102-35.2539Z"/>
  </g>
  <g id="Regular-L" transform="matrix(1 0 0 1 1376.38 1556)">
   <path class="multicolor-0:systemGreenColor hierarchical-0:secondary SFSymbolsPreview28CD41" d="M35.0586 22.2168L111.816 22.2168Q121.338 22.2168 126.099 17.4805Q130.859 12.7441 130.859 3.41797L130.859-73.7305Q130.859-83.0566 126.099-87.793Q121.338-92.5293 111.816-92.5293L35.0586-92.5293Q25.6348-92.5293 20.8496-87.8174Q16.0645-83.1055 16.0645-73.7305L16.0645 3.41797Q16.0645 12.793 20.8496 17.5049Q25.6348 22.2168 35.0586 22.2168ZM35.2539 13.5742Q30.127 13.5742 27.417 10.8887Q24.707 8.20312 24.707 2.97852L24.707-73.291Q24.707-78.5156 27.417-81.2012Q30.127-83.8867 35.2539-83.8867L111.67-83.8867Q116.699-83.8867 119.458-81.2012Q122.217-78.5156 122.217-73.291L122.217 2.97852Q122.217 8.20312 119.458 10.8887Q116.699 13.5742 111.67 13.5742Z"/>
   <path class="multicolor-0:systemGreenColor hierarchical-1:primary SFSymbolsPreview28CD41" d="M44.6289-35.2539Q44.6289-33.3496 45.9229-32.1045Q47.2168-30.8594 49.2188-30.8594L68.9453-30.8594L68.9453-11.084Q68.9453-9.08203 70.1904-7.78809Q71.4355-6.49414 73.3887-6.49414Q75.3906-6.49414 76.6846-7.76367Q77.9785-9.0332 77.9785-11.084L77.9785-30.8594L97.7539-30.8594Q99.7559-30.8594 101.025-32.1045Q102.295-33.3496 102.295-35.2539Q102.295-37.3047 101.025-38.5742Q99.7559-39.8438 97.7539-39.8438L77.9785-39.8438L77.9785-59.5703Q77.9785-61.6211 76.6846-62.915Q75.3906-64.209 73.3887-64.209Q71.4355-64.209 70.1904-62.915Q68.9453-61.6211 68.9453-59.5703L68.9453-39.8438L49.2188-39.8438Q47.168-39.8438 45.8984-38.5742Q44.6289-37.3047 44.6289-35.2539Z"/>
  </g>
  <g id="Light-L" transform="matrix(1 0 0 1 1080.5 1556)">
   <path class="multicolor-0:systemGreenColor hierarchical-0:secondary SFSymbolsPreview28CD41" d="M34.0332 21.4355L111.182 21.4355Q120.117 21.4355 124.658 16.8945Q129.199 12.3535 129.199 3.56445L129.199-73.8281Q129.199-82.6172 124.658-87.1582Q120.117-91.6992 111.182-91.6992L34.0332-91.6992Q25.1465-91.6992 20.6055-87.207Q16.0645-82.7148 16.0645-73.8281L16.0645 3.56445Q16.0645 12.4023 20.6055 16.9189Q25.1465 21.4355 34.0332 21.4355ZM34.2285 14.7949Q28.5645 14.7949 25.6104 11.8652Q22.6562 8.93555 22.6562 3.22266L22.6562-73.4863Q22.6562-79.1992 25.6104-82.1289Q28.5645-85.0586 34.2285-85.0586L111.035-85.0586Q116.553-85.0586 119.556-82.1289Q122.559-79.1992 122.559-73.4863L122.559 3.22266Q122.559 8.93555 119.556 11.8652Q116.553 14.7949 111.035 14.7949Z"/>
   <path class="multicolor-0:systemGreenColor hierarchical-1:primary SFSymbolsPreview28CD41" d="M44.2871-35.2539Q44.2871-33.8379 45.2881-32.8613Q46.2891-31.8848 47.8027-31.8848L69.1406-31.8848L69.1406-10.498Q69.1406-8.98438 70.1172-7.9834Q71.0938-6.98242 72.5586-6.98242Q74.0723-6.98242 75.0732-7.95898Q76.0742-8.93555 76.0742-10.498L76.0742-31.8848L97.5098-31.8848Q98.9746-31.8848 99.9756-32.8613Q100.977-33.8379 100.977-35.2539Q100.977-36.8164 100-37.8174Q99.0234-38.8184 97.5098-38.8184L76.0742-38.8184L76.0742-60.1562Q76.0742-61.7188 75.0732-62.7197Q74.0723-63.7207 72.5586-63.7207Q71.0938-63.7207 70.1172-62.7197Q69.1406-61.7188 69.1406-60.1562L69.1406-38.8184L47.8027-38.8184Q46.2402-38.8184 45.2637-37.8174Q44.2871-36.8164 44.2871-35.2539Z"/>
  </g>
  <g id="Thin-L" transform="matrix(1 0 0 1 784.894 1556)">
   <path class="multicolor-0:systemGreenColor hierarchical-0:secondary SFSymbolsPreview28CD41" d="M32.666 20.3613L110.352 20.3613Q118.506 20.3613 122.754 16.0889Q127.002 11.8164 127.002 3.75977L127.002-73.9746Q127.002-82.0312 122.754-86.3037Q118.506-90.5762 110.352-90.5762L32.666-90.5762Q24.5117-90.5762 20.2881-86.377Q16.0645-82.1777 16.0645-73.9746L16.0645 3.75977Q16.0645 11.9141 20.2881 16.1377Q24.5117 20.3613 32.666 20.3613ZM32.8125 16.4062Q26.5137 16.4062 23.2666 13.1592Q20.0195 9.91211 20.0195 3.56445L20.0195-73.7793Q20.0195-80.127 23.2666-83.374Q26.5137-86.6211 32.8125-86.6211L110.205-86.6211Q116.309-86.6211 119.678-83.374Q123.047-80.127 123.047-73.7793L123.047 3.56445Q123.047 9.91211 119.678 13.1592Q116.309 16.4062 110.205 16.4062Z"/>
   <path class="multicolor-0:systemGreenColor hierarchical-1:primary SFSymbolsPreview28CD41" d="M43.8965-35.2539Q43.8965-34.5215 44.5068-33.9111Q45.1172-33.3008 45.9473-33.3008L69.5312-33.3008L69.5312-9.76562Q69.5312-8.88672 70.1172-8.27637Q70.7031-7.66602 71.4844-7.66602Q72.3633-7.66602 72.998-8.25195Q73.6328-8.83789 73.6328-9.76562L73.6328-33.3008L97.2168-33.3008Q98.0469-33.3008 98.6328-33.9111Q99.2188-34.5215 99.2188-35.2539Q99.2188-36.1816 98.6572-36.792Q98.0957-37.4023 97.2168-37.4023L73.6328-37.4023L73.6328-60.9375Q73.6328-61.8652 72.998-62.4512Q72.3633-63.0371 71.4844-63.0371Q70.7031-63.0371 70.1172-62.4268Q69.5312-61.8164 69.5312-60.9375L69.5312-37.4023L45.9473-37.4023Q45.0684-37.4023 44.4824-36.792Q43.8965-36.1816 43.8965-35.2539Z"/>
  </g>
  <g id="Ultralight-L" transform="matrix(1 0 0 1 488.747 1556)">
   <path class="multicolor-0:systemGreenColor hierarchical-0:secondary SFSymbolsPreview28CD41" d="M31.9824 19.8242L109.961 19.8242Q117.725 19.8242 121.802 15.6738Q125.879 11.5234 125.879 3.85742L125.879-74.0723Q125.879-81.7383 121.802-85.8643Q117.725-89.9902 109.961-89.9902L31.9824-89.9902Q24.1699-89.9902 20.1172-85.9375Q16.0645-81.8848 16.0645-74.0723L16.0645 3.85742Q16.0645 11.6699 20.1172 15.7471Q24.1699 19.8242 31.9824 19.8242ZM32.1289 17.2363Q25.4395 17.2363 22.0215 13.8184Q18.6035 10.4004 18.6035 3.75977L18.6035-73.9258Q18.6035-80.6152 22.0215-84.0332Q25.4395-87.4512 32.1289-87.4512L109.814-87.4512Q116.211-87.4512 119.751-84.0332Q123.291-80.6152 123.291-73.9258L123.291 3.75977Q123.291 10.4004 119.751 13.8184Q116.211 17.2363 109.814 17.2363Z"/>
   <path class="multicolor-0:systemGreenColor hierarchical-1:primary SFSymbolsPreview28CD41" d="M43.6523-35.2539Q43.6523-34.8633 44.0674-34.4238Q44.4824-33.9844 44.9707-33.9844L69.6289-33.9844L69.6289-9.375Q69.6289-8.83789 70.0439-8.42285Q70.459-8.00781 70.8984-8.00781Q71.4844-8.00781 71.8994-8.37402Q72.3145-8.74023 72.3145-9.375L72.3145-33.9844L97.0215-33.9844Q97.5098-33.9844 97.9248-34.4238Q98.3398-34.8633 98.3398-35.2539Q98.3398-35.8398 97.9492-36.2793Q97.5586-36.7188 97.0215-36.7188L72.3145-36.7188L72.3145-61.3281Q72.3145-61.9629 71.8994-62.3291Q71.4844-62.6953 70.8984-62.6953Q70.459-62.6953 70.0439-62.2803Q69.6289-61.8652 69.6289-61.3281L69.6289-36.7188L44.9707-36.7188Q44.4336-36.7188 44.043-36.2793Q43.6523-35.8398 43.6523-35.2539Z"/>
  </g>
  <g id="Black-M" transform="matrix(1 0 0 1 2872.54 1126)">
   <path class="multicolor-0:systemGreenColor hierarchical-0:secondary SFSymbolsPreview28CD41" d="M31.5918 13.2324L90.1367 13.2324Q99.1699 13.2324 104.224 8.17871Q109.277 3.125 109.277-5.9082L109.277-64.4531Q109.277-73.5352 104.224-78.5645Q99.1699-83.5938 90.1367-83.5938L31.5918-83.5938Q22.5586-83.5938 17.5049-78.5645Q12.4512-73.5352 12.4512-64.4531L12.4512-5.9082Q12.4512 3.125 17.5049 8.17871Q22.5586 13.2324 31.5918 13.2324ZM34.2285-4.10156Q31.9824-4.10156 30.8838-5.12695Q29.7852-6.15234 29.7852-8.59375L29.7852-61.8164Q29.7852-64.2578 30.8838-65.2588Q31.9824-66.2598 34.2285-66.2598L87.5-66.2598Q89.7461-66.2598 90.8447-65.2588Q91.9434-64.2578 91.9434-61.8164L91.9434-8.59375Q91.9434-6.15234 90.8447-5.12695Q89.7461-4.10156 87.5-4.10156Z"/>
   <path class="multicolor-0:systemGreenColor hierarchical-1:primary SFSymbolsPreview28CD41" d="M38.623-35.2539Q38.623-32.373 40.4785-30.4443Q42.334-28.5156 45.166-28.5156L54.1504-28.5156L54.1504-19.5312Q54.1504-16.748 56.0791-14.8682Q58.0078-12.9883 60.8887-12.9883Q63.7695-12.9883 65.6982-14.8682Q67.627-16.748 67.627-19.5312L67.627-28.5156L76.6113-28.5156Q79.3945-28.5156 81.2744-30.4443Q83.1543-32.373 83.1543-35.2539Q83.1543-38.1348 81.2744-40.0635Q79.3945-41.9922 76.6113-41.9922L67.627-41.9922L67.627-50.9766Q67.627-53.8086 65.6982-55.6641Q63.7695-57.5195 60.8887-57.5195Q58.0078-57.5195 56.0791-55.6641Q54.1504-53.8086 54.1504-50.9766L54.1504-41.9922L45.166-41.9922Q42.334-41.9922 40.4785-40.0635Q38.623-38.1348 38.623-35.2539Z"/>
  </g>
  <g id="Heavy-M" transform="matrix(1 0 0 1 2576.64 1126)">
   <path class="multicolor-0:systemGreenColor hierarchical-0:secondary SFSymbolsPreview28CD41" d="M30.7129 12.4023L89.4043 12.4023Q98.0957 12.4023 102.856 7.66602Q107.617 2.92969 107.617-5.76172L107.617-64.5996Q107.617-73.291 102.856-78.0273Q98.0957-82.7637 89.4043-82.7637L30.7129-82.7637Q21.9727-82.7637 17.2119-78.0273Q12.4512-73.291 12.4512-64.5996L12.4512-5.76172Q12.4512 2.92969 17.2119 7.66602Q21.9727 12.4023 30.7129 12.4023ZM32.7148-2.68555Q30.127-2.68555 28.833-3.93066Q27.5391-5.17578 27.5391-7.91016L27.5391-62.4512Q27.5391-65.2344 28.833-66.4551Q30.127-67.6758 32.7148-67.6758L87.3535-67.6758Q89.9414-67.6758 91.2354-66.4551Q92.5293-65.2344 92.5293-62.4512L92.5293-7.91016Q92.5293-5.17578 91.2354-3.93066Q89.9414-2.68555 87.3535-2.68555Z"/>
   <path class="multicolor-0:systemGreenColor hierarchical-1:primary SFSymbolsPreview28CD41" d="M37.7441-35.2539Q37.7441-32.6172 39.4287-30.8838Q41.1133-29.1504 43.75-29.1504L54.0039-29.1504L54.0039-18.8965Q54.0039-16.3574 55.7373-14.6484Q57.4707-12.9395 60.0586-12.9395Q62.6953-12.9395 64.4531-14.6484Q66.2109-16.3574 66.2109-18.8965L66.2109-29.1504L76.4648-29.1504Q79.0527-29.1504 80.7617-30.8838Q82.4707-32.6172 82.4707-35.2539Q82.4707-37.8906 80.7617-39.624Q79.0527-41.3574 76.4648-41.3574L66.2109-41.3574L66.2109-51.6113Q66.2109-54.248 64.4531-55.9326Q62.6953-57.6172 60.0586-57.6172Q57.4707-57.6172 55.7373-55.9326Q54.0039-54.248 54.0039-51.6113L54.0039-41.3574L43.75-41.3574Q41.1133-41.3574 39.4287-39.624Q37.7441-37.8906 37.7441-35.2539Z"/>
  </g>
  <g id="Bold-M" transform="matrix(1 0 0 1 2280.85 1126)">
   <path class="multicolor-0:systemGreenColor hierarchical-0:secondary SFSymbolsPreview28CD41" d="M29.6875 11.5234L88.5742 11.5234Q96.9238 11.5234 101.367 7.10449Q105.811 2.68555 105.811-5.66406L105.811-64.7461Q105.811-73.0469 101.367-77.4658Q96.9238-81.8848 88.5742-81.8848L29.6875-81.8848Q21.3379-81.8848 16.8945-77.4658Q12.4512-73.0469 12.4512-64.7461L12.4512-5.66406Q12.4512 2.68555 16.8945 7.10449Q21.3379 11.5234 29.6875 11.5234ZM31.0547-1.12305Q28.125-1.12305 26.5869-2.58789Q25.0488-4.05273 25.0488-7.17773L25.0488-63.2324Q25.0488-66.3574 26.5869-67.8223Q28.125-69.2871 31.0547-69.2871L87.207-69.2871Q90.1367-69.2871 91.6748-67.8223Q93.2129-66.3574 93.2129-63.2324L93.2129-7.17773Q93.2129-4.05273 91.6748-2.58789Q90.1367-1.12305 87.207-1.12305Z"/>
   <path class="multicolor-0:systemGreenColor hierarchical-1:primary SFSymbolsPreview28CD41" d="M36.7188-35.2539Q36.7188-32.959 38.2324-31.4209Q39.7461-29.8828 42.0898-29.8828L53.7598-29.8828L53.7598-18.2129Q53.7598-15.8691 55.2979-14.3555Q56.8359-12.8418 59.1309-12.8418Q61.5234-12.8418 63.0615-14.3555Q64.5996-15.8691 64.5996-18.2129L64.5996-29.8828L76.2695-29.8828Q78.6133-29.8828 80.127-31.4209Q81.6406-32.959 81.6406-35.2539Q81.6406-37.6465 80.127-39.1846Q78.6133-40.7227 76.2695-40.7227L64.5996-40.7227L64.5996-52.3926Q64.5996-54.7363 63.0615-56.25Q61.5234-57.7637 59.1309-57.7637Q56.8359-57.7637 55.2979-56.25Q53.7598-54.7363 53.7598-52.3926L53.7598-40.7227L42.0898-40.7227Q39.7461-40.7227 38.2324-39.1846Q36.7188-37.6465 36.7188-35.2539Z"/>
  </g>
  <g id="Semibold-M" transform="matrix(1 0 0 1 1984.77 1126)">
   <path class="multicolor-0:systemGreenColor hierarchical-0:secondary SFSymbolsPreview28CD41" d="M29.0039 10.8887L87.9883 10.8887Q96.0938 10.8887 100.317 6.68945Q104.541 2.49023 104.541-5.51758L104.541-64.8438Q104.541-72.8516 100.317-77.0508Q96.0938-81.25 87.9883-81.25L29.0039-81.25Q20.8984-81.25 16.6748-77.0508Q12.4512-72.8516 12.4512-64.8438L12.4512-5.51758Q12.4512 2.49023 16.6748 6.68945Q20.8984 10.8887 29.0039 10.8887ZM29.8828 0Q26.709 0 25.0244-1.63574Q23.3398-3.27148 23.3398-6.64062L23.3398-63.7207Q23.3398-67.0898 25.0244-68.7256Q26.709-70.3613 29.8828-70.3613L87.1094-70.3613Q90.2832-70.3613 91.9678-68.7256Q93.6523-67.0898 93.6523-63.7207L93.6523-6.64062Q93.6523-3.27148 91.9678-1.63574Q90.2832 0 87.1094 0Z"/>
   <path class="multicolor-0:systemGreenColor hierarchical-1:primary SFSymbolsPreview28CD41" d="M36.0352-35.2539Q36.0352-33.1543 37.4268-31.7627Q38.8184-30.3711 40.9668-30.3711L53.6133-30.3711L53.6133-17.6758Q53.6133-15.5273 55.0049-14.1602Q56.3965-12.793 58.4961-12.793Q60.6934-12.793 62.085-14.1602Q63.4766-15.5273 63.4766-17.6758L63.4766-30.3711L76.1719-30.3711Q78.3203-30.3711 79.6875-31.7627Q81.0547-33.1543 81.0547-35.2539Q81.0547-37.4512 79.6875-38.8428Q78.3203-40.2344 76.1719-40.2344L63.4766-40.2344L63.4766-52.8809Q63.4766-55.0781 62.085-56.4453Q60.6934-57.8125 58.4961-57.8125Q56.3965-57.8125 55.0049-56.4209Q53.6133-55.0293 53.6133-52.8809L53.6133-40.2344L40.9668-40.2344Q38.7695-40.2344 37.4023-38.8428Q36.0352-37.4512 36.0352-35.2539Z"/>
  </g>
  <g id="Medium-M" transform="matrix(1 0 0 1 1688.53 1126)">
   <path class="multicolor-0:systemGreenColor hierarchical-0:secondary SFSymbolsPreview28CD41" d="M28.4668 10.4004L87.5977 10.4004Q95.5078 10.4004 99.5605 6.37207Q103.613 2.34375 103.613-5.46875L103.613-64.8926Q103.613-72.7539 99.5605-76.7578Q95.5078-80.7617 87.5977-80.7617L28.4668-80.7617Q20.5566-80.7617 16.5039-76.7578Q12.4512-72.7539 12.4512-64.8926L12.4512-5.46875Q12.4512 2.34375 16.5039 6.37207Q20.5566 10.4004 28.4668 10.4004ZM29.0039 0.830078Q25.6348 0.830078 23.8281-0.927734Q22.0215-2.68555 22.0215-6.25L22.0215-64.1113Q22.0215-67.6758 23.8281-69.4336Q25.6348-71.1914 29.0039-71.1914L87.0117-71.1914Q90.3809-71.1914 92.2119-69.4336Q94.043-67.6758 94.043-64.1113L94.043-6.25Q94.043-2.68555 92.2119-0.927734Q90.3809 0.830078 87.0117 0.830078Z"/>
   <path class="multicolor-0:systemGreenColor hierarchical-1:primary SFSymbolsPreview28CD41" d="M35.498-35.2539Q35.498-33.3008 36.792-32.0312Q38.0859-30.7617 40.1367-30.7617L53.5156-30.7617L53.5156-17.334Q53.5156-15.2832 54.7852-14.0137Q56.0547-12.7441 58.0078-12.7441Q60.0586-12.7441 61.3281-14.0137Q62.5977-15.2832 62.5977-17.334L62.5977-30.7617L76.0254-30.7617Q78.0762-30.7617 79.3457-32.0312Q80.6152-33.3008 80.6152-35.2539Q80.6152-37.3047 79.3457-38.5986Q78.0762-39.8926 76.0254-39.8926L62.5977-39.8926L62.5977-53.2715Q62.5977-55.3223 61.3281-56.5918Q60.0586-57.8613 58.0078-57.8613Q56.0547-57.8613 54.7852-56.5674Q53.5156-55.2734 53.5156-53.2715L53.5156-39.8926L40.1367-39.8926Q38.0371-39.8926 36.7676-38.5986Q35.498-37.3047 35.498-35.2539Z"/>
  </g>
  <g id="Regular-M" transform="matrix(1 0 0 1 1392.45 1126)">
   <path class="multicolor-0:systemGreenColor hierarchical-0:secondary SFSymbolsPreview28CD41" d="M27.7832 9.76562L87.0117 9.76562Q94.6777 9.76562 98.5107 5.98145Q102.344 2.19727 102.344-5.37109L102.344-64.9902Q102.344-72.5586 98.5107-76.3428Q94.6777-80.127 87.0117-80.127L27.7832-80.127Q20.1172-80.127 16.2842-76.3428Q12.4512-72.5586 12.4512-64.9902L12.4512-5.37109Q12.4512 2.19727 16.2842 5.98145Q20.1172 9.76562 27.7832 9.76562ZM27.8809 1.9043Q24.2188 1.9043 22.2656-0.0244141Q20.3125-1.95312 20.3125-5.76172L20.3125-64.5996Q20.3125-68.4082 22.2656-70.3369Q24.2188-72.2656 27.8809-72.2656L86.9141-72.2656Q90.5273-72.2656 92.5049-70.3369Q94.4824-68.4082 94.4824-64.5996L94.4824-5.76172Q94.4824-1.95312 92.5049-0.0244141Q90.5273 1.9043 86.9141 1.9043Z"/>
   <path class="multicolor-0:systemGreenColor hierarchical-1:primary SFSymbolsPreview28CD41" d="M34.8145-35.2539Q34.8145-33.4961 35.9863-32.373Q37.1582-31.25 39.0137-31.25L53.3691-31.25L53.3691-16.8457Q53.3691-14.9902 54.4922-13.8428Q55.6152-12.6953 57.373-12.6953Q59.2285-12.6953 60.376-13.8428Q61.5234-14.9902 61.5234-16.8457L61.5234-31.25L75.9277-31.25Q77.7832-31.25 78.9307-32.373Q80.0781-33.4961 80.0781-35.2539Q80.0781-37.1094 78.9307-38.2568Q77.7832-39.4043 75.9277-39.4043L61.5234-39.4043L61.5234-53.7598Q61.5234-55.6641 60.376-56.8115Q59.2285-57.959 57.373-57.959Q55.6152-57.959 54.4922-56.7871Q53.3691-55.6152 53.3691-53.7598L53.3691-39.4043L39.0137-39.4043Q37.1094-39.4043 35.9619-38.2568Q34.8145-37.1094 34.8145-35.2539Z"/>
  </g>
  <g id="Light-M" transform="matrix(1 0 0 1 1096.48 1126)">
   <path class="multicolor-0:systemGreenColor hierarchical-0:secondary SFSymbolsPreview28CD41" d="M26.8555 9.0332L86.4746 9.0332Q93.6035 9.0332 97.2412 5.44434Q100.879 1.85547 100.879-5.22461L100.879-65.0879Q100.879-72.168 97.2412-75.7812Q93.6035-79.3945 86.4746-79.3945L26.8555-79.3945Q19.6777-79.3945 16.0645-75.8057Q12.4512-72.2168 12.4512-65.0879L12.4512-5.22461Q12.4512 1.85547 16.0645 5.44434Q19.6777 9.0332 26.8555 9.0332ZM26.9531 2.97852Q22.8027 2.97852 20.6543 0.830078Q18.5059-1.31836 18.5059-5.51758L18.5059-64.7949Q18.5059-69.043 20.6543-71.1914Q22.8027-73.3398 26.9531-73.3398L86.377-73.3398Q90.3809-73.3398 92.6025-71.1914Q94.8242-69.043 94.8242-64.7949L94.8242-5.51758Q94.8242-1.31836 92.6025 0.830078Q90.3809 2.97852 86.377 2.97852Z"/>
   <path class="multicolor-0:systemGreenColor hierarchical-1:primary SFSymbolsPreview28CD41" d="M34.5215-35.2539Q34.5215-33.9355 35.4248-33.0566Q36.3281-32.1777 37.7441-32.1777L53.5645-32.1777L53.5645-16.3086Q53.5645-14.9414 54.4434-14.0381Q55.3223-13.1348 56.6406-13.1348Q58.0566-13.1348 58.9355-14.0137Q59.8145-14.8926 59.8145-16.3086L59.8145-32.1777L75.7324-32.1777Q77.0996-32.1777 78.0029-33.0566Q78.9062-33.9355 78.9062-35.2539Q78.9062-36.6699 78.0273-37.5732Q77.1484-38.4766 75.7324-38.4766L59.8145-38.4766L59.8145-54.2969Q59.8145-55.7617 58.9355-56.6406Q58.0566-57.5195 56.6406-57.5195Q55.3223-57.5195 54.4434-56.6162Q53.5645-55.7129 53.5645-54.2969L53.5645-38.4766L37.7441-38.4766Q36.2793-38.4766 35.4004-37.5732Q34.5215-36.6699 34.5215-35.2539Z"/>
  </g>
  <g id="Thin-M" transform="matrix(1 0 0 1 800.747 1126)">
   <path class="multicolor-0:systemGreenColor hierarchical-0:secondary SFSymbolsPreview28CD41" d="M25.5859 8.05664L85.6934 8.05664Q92.2363 8.05664 95.5566 4.71191Q98.877 1.36719 98.877-5.07812L98.877-65.2344Q98.877-71.6309 95.5566-75Q92.2363-78.3691 85.6934-78.3691L25.5859-78.3691Q19.1406-78.3691 15.7959-75.0488Q12.4512-71.7285 12.4512-65.2344L12.4512-5.07812Q12.4512 1.41602 15.7959 4.73633Q19.1406 8.05664 25.5859 8.05664ZM25.7324 4.44336Q20.9961 4.44336 18.5547 2.00195Q16.1133-0.439453 16.1133-5.22461L16.1133-65.0391Q16.1133-69.873 18.5547-72.29Q20.9961-74.707 25.7324-74.707L85.5957-74.707Q90.2344-74.707 92.749-72.29Q95.2637-69.873 95.2637-65.0391L95.2637-5.22461Q95.2637-0.439453 92.749 2.00195Q90.2344 4.44336 85.5957 4.44336Z"/>
   <path class="multicolor-0:systemGreenColor hierarchical-1:primary SFSymbolsPreview28CD41" d="M34.1309-35.2539Q34.1309-34.5215 34.6924-33.9844Q35.2539-33.4473 36.0352-33.4473L53.8574-33.4473L53.8574-15.6738Q53.8574-14.8438 54.3945-14.2822Q54.9316-13.7207 55.6641-13.7207Q56.4941-13.7207 57.0557-14.2578Q57.6172-14.7949 57.6172-15.6738L57.6172-33.4473L75.4395-33.4473Q76.2207-33.4473 76.7822-33.9844Q77.3438-34.5215 77.3438-35.2539Q77.3438-36.084 76.8066-36.6455Q76.2695-37.207 75.4395-37.207L57.6172-37.207L57.6172-54.9805Q57.6172-55.8594 57.0557-56.3721Q56.4941-56.8848 55.6641-56.8848Q54.9316-56.8848 54.3945-56.3477Q53.8574-55.8105 53.8574-54.9805L53.8574-37.207L36.0352-37.207Q35.2051-37.207 34.668-36.6455Q34.1309-36.084 34.1309-35.2539Z"/>
  </g>
  <g id="Ultralight-M" transform="matrix(1 0 0 1 504.539 1126)">
   <path class="multicolor-0:systemGreenColor hierarchical-0:secondary SFSymbolsPreview28CD41" d="M24.9512 7.56836L85.3516 7.56836Q91.5039 7.56836 94.7021 4.3457Q97.9004 1.12305 97.9004-4.98047L97.9004-65.332Q97.9004-71.3867 94.7021-74.6338Q91.5039-77.8809 85.3516-77.8809L24.9512-77.8809Q18.8477-77.8809 15.6494-74.6826Q12.4512-71.4844 12.4512-65.332L12.4512-4.98047Q12.4512 1.2207 15.6494 4.39453Q18.8477 7.56836 24.9512 7.56836ZM25.0977 5.17578Q20.0195 5.17578 17.4316 2.58789Q14.8438 0 14.8438-5.07812L14.8438-65.1855Q14.8438-70.2637 17.4316-72.8516Q20.0195-75.4395 25.0977-75.4395L85.2539-75.4395Q90.1367-75.4395 92.7979-72.8516Q95.459-70.2637 95.459-65.1855L95.459-5.07812Q95.459 0 92.7979 2.58789Q90.1367 5.17578 85.2539 5.17578Z"/>
   <path class="multicolor-0:systemGreenColor hierarchical-1:primary SFSymbolsPreview28CD41" d="M33.8867-35.2539Q33.8867-34.8145 34.2529-34.4482Q34.6191-34.082 35.1562-34.082L53.9551-34.082L53.9551-15.2832Q53.9551-14.7949 54.3213-14.4043Q54.6875-14.0137 55.127-14.0137Q55.6641-14.0137 56.0303-14.3799Q56.3965-14.7461 56.3965-15.2832L56.3965-34.082L75.2441-34.082Q75.7324-34.082 76.0986-34.4482Q76.4648-34.8145 76.4648-35.2539Q76.4648-35.791 76.123-36.1816Q75.7812-36.5723 75.2441-36.5723L56.3965-36.5723L56.3965-55.3711Q56.3965-55.9082 56.0303-56.25Q55.6641-56.5918 55.127-56.5918Q54.6875-56.5918 54.3213-56.2256Q53.9551-55.8594 53.9551-55.3711L53.9551-36.5723L35.1562-36.5723Q34.5703-36.5723 34.2285-36.1816Q33.8867-35.791 33.8867-35.2539Z"/>
  </g>
  <g id="Black-S" transform="matrix(1 0 0 1 2885.5 696)">
   <path class="multicolor-0:systemGreenColor hierarchical-0:secondary SFSymbolsPreview28CD41" d="M25 2.92969L70.8008 2.92969Q77.9785 2.92969 82.0068-1.09863Q86.0352-5.12695 86.0352-12.3047L86.0352-58.1055Q86.0352-65.2832 82.0068-69.3115Q77.9785-73.3398 70.8008-73.3398L25-73.3398Q17.8223-73.3398 13.7939-69.3115Q9.76562-65.2832 9.76562-58.1055L9.76562-12.3047Q9.76562-5.12695 13.7939-1.09863Q17.8223 2.92969 25 2.92969ZM27.2461-11.2305Q25.5859-11.2305 24.7559-11.9873Q23.9258-12.7441 23.9258-14.5508L23.9258-55.8594Q23.9258-57.7148 24.7559-58.4473Q25.5859-59.1797 27.2461-59.1797L68.5547-59.1797Q70.2637-59.1797 71.0693-58.4473Q71.875-57.7148 71.875-55.8594L71.875-14.5508Q71.875-12.7441 71.0693-11.9873Q70.2637-11.2305 68.5547-11.2305Z"/>
   <path class="multicolor-0:systemGreenColor hierarchical-1:primary SFSymbolsPreview28CD41" d="M30.5176-35.2539Q30.5176-32.959 32.0068-31.3965Q33.4961-29.834 35.7422-29.834L42.4805-29.834L42.4805-23.0957Q42.4805-20.8496 44.043-19.3604Q45.6055-17.8711 47.9004-17.8711Q50.1953-17.8711 51.7578-19.3604Q53.3203-20.8496 53.3203-23.0957L53.3203-29.834L60.0586-29.834Q62.3047-29.834 63.7939-31.3965Q65.2832-32.959 65.2832-35.2539Q65.2832-37.5488 63.7939-39.1113Q62.3047-40.6738 60.0586-40.6738L53.3203-40.6738L53.3203-47.4121Q53.3203-49.6582 51.7578-51.1475Q50.1953-52.6367 47.9004-52.6367Q45.6055-52.6367 44.043-51.1475Q42.4805-49.6582 42.4805-47.4121L42.4805-40.6738L35.7422-40.6738Q33.4961-40.6738 32.0068-39.1113Q30.5176-37.5488 30.5176-35.2539Z"/>
  </g>
  <g id="Heavy-S" transform="matrix(1 0 0 1 2589.39 696)">
   <path class="multicolor-0:systemGreenColor hierarchical-0:secondary SFSymbolsPreview28CD41" d="M24.3652 2.34375L70.2637 2.34375Q77.1973 2.34375 81.0059-1.46484Q84.8145-5.27344 84.8145-12.207L84.8145-58.2031Q84.8145-65.1367 81.0059-68.9453Q77.1973-72.7539 70.2637-72.7539L24.3652-72.7539Q17.3828-72.7539 13.5742-68.9453Q9.76562-65.1367 9.76562-58.2031L9.76562-12.207Q9.76562-5.27344 13.5742-1.46484Q17.3828 2.34375 24.3652 2.34375ZM26.0742-10.1562Q24.1699-10.1562 23.2178-11.0596Q22.2656-11.9629 22.2656-14.0137L22.2656-56.3965Q22.2656-58.4473 23.2178-59.3506Q24.1699-60.2539 26.0742-60.2539L68.5059-60.2539Q70.459-60.2539 71.4111-59.3506Q72.3633-58.4473 72.3633-56.3965L72.3633-14.0137Q72.3633-11.9629 71.4111-11.0596Q70.459-10.1562 68.5059-10.1562Z"/>
   <path class="multicolor-0:systemGreenColor hierarchical-1:primary SFSymbolsPreview28CD41" d="M29.7852-35.2539Q29.7852-33.1055 31.1768-31.6895Q32.5684-30.2734 34.668-30.2734L42.2852-30.2734L42.2852-22.6074Q42.2852-20.5078 43.7256-19.1162Q45.166-17.7246 47.3145-17.7246Q49.4141-17.7246 50.8545-19.1162Q52.2949-20.5078 52.2949-22.6074L52.2949-30.2734L59.9609-30.2734Q62.0605-30.2734 63.4277-31.6895Q64.7949-33.1055 64.7949-35.2539Q64.7949-37.4023 63.4277-38.8428Q62.0605-40.2832 59.9609-40.2832L52.2949-40.2832L52.2949-47.9004Q52.2949-50 50.8545-51.3916Q49.4141-52.7832 47.3145-52.7832Q45.166-52.7832 43.7256-51.3916Q42.2852-50 42.2852-47.9004L42.2852-40.2832L34.668-40.2832Q32.5684-40.2832 31.1768-38.8428Q29.7852-37.4023 29.7852-35.2539Z"/>
  </g>
  <g id="Bold-S" transform="matrix(1 0 0 1 2293.36 696)">
   <path class="multicolor-0:systemGreenColor hierarchical-0:secondary SFSymbolsPreview28CD41" d="M23.6328 1.66016L69.6289 1.66016Q76.3672 1.66016 79.9316-1.9043Q83.4961-5.46875 83.4961-12.1094L83.4961-58.3008Q83.4961-64.9902 79.9316-68.5303Q76.3672-72.0703 69.6289-72.0703L23.6328-72.0703Q16.9434-72.0703 13.3545-68.5303Q9.76562-64.9902 9.76562-58.3008L9.76562-12.1094Q9.76562-5.46875 13.3545-1.9043Q16.9434 1.66016 23.6328 1.66016ZM24.8047-8.98438Q22.6562-8.98438 21.5088-10.0586Q20.3613-11.1328 20.3613-13.4277L20.3613-57.0312Q20.3613-59.3262 21.5088-60.4004Q22.6562-61.4746 24.8047-61.4746L68.457-61.4746Q70.6543-61.4746 71.7773-60.4004Q72.9004-59.3262 72.9004-57.0312L72.9004-13.4277Q72.9004-11.1328 71.7773-10.0586Q70.6543-8.98438 68.457-8.98438Z"/>
   <path class="multicolor-0:systemGreenColor hierarchical-1:primary SFSymbolsPreview28CD41" d="M28.9551-35.2539Q28.9551-33.3008 30.2246-32.0312Q31.4941-30.7617 33.4473-30.7617L42.0898-30.7617L42.0898-22.0703Q42.0898-20.166 43.3594-18.8965Q44.6289-17.627 46.6309-17.627Q48.584-17.627 49.8779-18.8965Q51.1719-20.166 51.1719-22.0703L51.1719-30.7617L59.8145-30.7617Q61.7676-30.7617 63.0371-32.0312Q64.3066-33.3008 64.3066-35.2539Q64.3066-37.2559 63.0371-38.5498Q61.7676-39.8438 59.8145-39.8438L51.1719-39.8438L51.1719-48.4863Q51.1719-50.4395 49.8779-51.709Q48.584-52.9785 46.6309-52.9785Q44.6289-52.9785 43.3594-51.709Q42.0898-50.4395 42.0898-48.4863L42.0898-39.8438L33.4473-39.8438Q31.4941-39.8438 30.2246-38.5498Q28.9551-37.2559 28.9551-35.2539Z"/>
  </g>
  <g id="Semibold-S" transform="matrix(1 0 0 1 1997.11 696)">
   <path class="multicolor-0:systemGreenColor hierarchical-0:secondary SFSymbolsPreview28CD41" d="M23.0957 1.2207L69.1895 1.2207Q75.7324 1.2207 79.126-2.17285Q82.5195-5.56641 82.5195-12.0605L82.5195-58.3496Q82.5195-64.8438 79.126-68.2373Q75.7324-71.6309 69.1895-71.6309L23.0957-71.6309Q16.6016-71.6309 13.1836-68.2373Q9.76562-64.8438 9.76562-58.3496L9.76562-12.0605Q9.76562-5.56641 13.1836-2.17285Q16.6016 1.2207 23.0957 1.2207ZM23.877-8.1543Q21.5332-8.1543 20.2881-9.32617Q19.043-10.498 19.043-12.9883L19.043-57.4219Q19.043-59.8633 20.2881-61.0596Q21.5332-62.2559 23.877-62.2559L68.4082-62.2559Q70.752-62.2559 71.9971-61.0596Q73.2422-59.8633 73.2422-57.4219L73.2422-12.9883Q73.2422-10.498 71.9971-9.32617Q70.752-8.1543 68.4082-8.1543Z"/>
   <path class="multicolor-0:systemGreenColor hierarchical-1:primary SFSymbolsPreview28CD41" d="M28.3691-35.2539Q28.3691-33.4473 29.541-32.251Q30.7129-31.0547 32.6172-31.0547L41.9434-31.0547L41.9434-21.6797Q41.9434-19.873 43.0908-18.6768Q44.2383-17.4805 46.1426-17.4805Q47.9492-17.4805 49.1699-18.6768Q50.3906-19.873 50.3906-21.6797L50.3906-31.0547L59.7168-31.0547Q61.5723-31.0547 62.7441-32.251Q63.916-33.4473 63.916-35.2539Q63.916-37.1094 62.7441-38.3057Q61.5723-39.502 59.7168-39.502L50.3906-39.502L50.3906-48.8281Q50.3906-50.6836 49.1699-51.8799Q47.9492-53.0762 46.1426-53.0762Q44.2383-53.0762 43.0908-51.8799Q41.9434-50.6836 41.9434-48.8281L41.9434-39.502L32.6172-39.502Q30.7129-39.502 29.541-38.3057Q28.3691-37.1094 28.3691-35.2539Z"/>
  </g>
  <g id="Medium-S" transform="matrix(1 0 0 1 1700.76 696)">
   <path class="multicolor-0:systemGreenColor hierarchical-0:secondary SFSymbolsPreview28CD41" d="M22.7051 0.830078L68.8965 0.830078Q75.293 0.830078 78.5645-2.41699Q81.8359-5.66406 81.8359-11.9629L81.8359-58.4473Q81.8359-64.7461 78.5645-67.9932Q75.293-71.2402 68.8965-71.2402L22.7051-71.2402Q16.3574-71.2402 13.0615-67.9932Q9.76562-64.7461 9.76562-58.4473L9.76562-11.9629Q9.76562-5.66406 13.0615-2.41699Q16.3574 0.830078 22.7051 0.830078ZM23.1934-7.51953Q20.752-7.51953 19.4092-8.78906Q18.0664-10.0586 18.0664-12.6465L18.0664-57.7637Q18.0664-60.3027 19.4092-61.5967Q20.752-62.8906 23.1934-62.8906L68.4082-62.8906Q70.8496-62.8906 72.1924-61.5967Q73.5352-60.3027 73.5352-57.7637L73.5352-12.6465Q73.5352-10.0586 72.1924-8.78906Q70.8496-7.51953 68.4082-7.51953Z"/>
   <path class="multicolor-0:systemGreenColor hierarchical-1:primary SFSymbolsPreview28CD41" d="M27.9785-35.2539Q27.9785-33.4961 29.0771-32.3975Q30.1758-31.2988 31.9824-31.2988L41.8457-31.2988L41.8457-21.4355Q41.8457-19.6777 42.9443-18.5547Q44.043-17.4316 45.8008-17.4316Q47.5586-17.4316 48.6816-18.5547Q49.8047-19.6777 49.8047-21.4355L49.8047-31.2988L59.668-31.2988Q61.4258-31.2988 62.5488-32.3975Q63.6719-33.4961 63.6719-35.2539Q63.6719-37.0117 62.5488-38.1348Q61.4258-39.2578 59.668-39.2578L49.8047-39.2578L49.8047-49.1211Q49.8047-50.8789 48.6816-52.0264Q47.5586-53.1738 45.8008-53.1738Q44.043-53.1738 42.9443-52.0264Q41.8457-50.8789 41.8457-49.1211L41.8457-39.2578L31.9824-39.2578Q30.1758-39.2578 29.0771-38.1348Q27.9785-37.0117 27.9785-35.2539Z"/>
  </g>
  <g id="Regular-S" transform="matrix(1 0 0 1 1404.51 696)">
   <path class="multicolor-0:systemGreenColor hierarchical-0:secondary SFSymbolsPreview28CD41" d="M22.2168 0.390625L68.457 0.390625Q74.707 0.390625 77.8076-2.68555Q80.9082-5.76172 80.9082-11.9141L80.9082-58.4961Q80.9082-64.6484 77.8076-67.7246Q74.707-70.8008 68.457-70.8008L22.2168-70.8008Q16.0156-70.8008 12.8906-67.7246Q9.76562-64.6484 9.76562-58.4961L9.76562-11.9141Q9.76562-5.76172 12.8906-2.68555Q16.0156 0.390625 22.2168 0.390625ZM22.3145-6.68945Q19.6777-6.68945 18.2373-8.08105Q16.7969-9.47266 16.7969-12.2559L16.7969-58.1543Q16.7969-60.8887 18.2373-62.3047Q19.6777-63.7207 22.3145-63.7207L68.3594-63.7207Q70.9961-63.7207 72.4365-62.3047Q73.877-60.8887 73.877-58.1543L73.877-12.2559Q73.877-9.47266 72.4365-8.08105Q70.9961-6.68945 68.3594-6.68945Z"/>
   <path class="multicolor-0:systemGreenColor hierarchical-1:primary SFSymbolsPreview28CD41" d="M27.3926-35.2539Q27.3926-33.6426 28.418-32.6416Q29.4434-31.6406 31.1523-31.6406L41.6992-31.6406L41.6992-21.0449Q41.6992-19.4336 42.6758-18.3838Q43.6523-17.334 45.3125-17.334Q46.9238-17.334 47.9736-18.3838Q49.0234-19.4336 49.0234-21.0449L49.0234-31.6406L59.5703-31.6406Q61.2305-31.6406 62.2559-32.6416Q63.2812-33.6426 63.2812-35.2539Q63.2812-36.9141 62.2559-37.9395Q61.2305-38.9648 59.5703-38.9648L49.0234-38.9648L49.0234-49.5117Q49.0234-51.1719 47.9736-52.2217Q46.9238-53.2715 45.3125-53.2715Q43.6523-53.2715 42.6758-52.2217Q41.6992-51.1719 41.6992-49.5117L41.6992-38.9648L31.1523-38.9648Q29.4434-38.9648 28.418-37.9395Q27.3926-36.9141 27.3926-35.2539Z"/>
  </g>
  <g id="Light-S" transform="matrix(1 0 0 1 1108.45 696)">
   <path class="multicolor-0:systemGreenColor hierarchical-0:secondary SFSymbolsPreview28CD41" d="M21.3867-0.244141L67.9688-0.244141Q73.7793-0.244141 76.6846-3.17383Q79.5898-6.10352 79.5898-11.8164L79.5898-58.5938Q79.5898-64.3066 76.6846-67.2119Q73.7793-70.1172 67.9688-70.1172L21.3867-70.1172Q15.625-70.1172 12.6953-67.2119Q9.76562-64.3066 9.76562-58.5938L9.76562-11.8164Q9.76562-6.05469 12.6953-3.14941Q15.625-0.244141 21.3867-0.244141ZM21.4844-5.71289Q18.457-5.71289 16.8213-7.2998Q15.1855-8.88672 15.1855-12.0605L15.1855-58.3008Q15.1855-61.4258 16.8213-63.0371Q18.457-64.6484 21.4844-64.6484L67.8711-64.6484Q70.8984-64.6484 72.5342-63.0371Q74.1699-61.4258 74.1699-58.3008L74.1699-12.0605Q74.1699-8.88672 72.5342-7.2998Q70.8984-5.71289 67.8711-5.71289Z"/>
   <path class="multicolor-0:systemGreenColor hierarchical-1:primary SFSymbolsPreview28CD41" d="M27.1484-35.2539Q27.1484-34.0332 27.9541-33.252Q28.7598-32.4707 30.0293-32.4707L41.8945-32.4707L41.8945-20.6055Q41.8945-19.3848 42.6514-18.5547Q43.4082-17.7246 44.6777-17.7246Q45.8984-17.7246 46.7285-18.5303Q47.5586-19.3359 47.5586-20.6055L47.5586-32.4707L59.375-32.4707Q60.6445-32.4707 61.4502-33.252Q62.2559-34.0332 62.2559-35.2539Q62.2559-36.5234 61.4502-37.3291Q60.6445-38.1348 59.375-38.1348L47.5586-38.1348L47.5586-50Q47.5586-51.2695 46.7285-52.0752Q45.8984-52.8809 44.6777-52.8809Q43.4082-52.8809 42.6514-52.0508Q41.8945-51.2207 41.8945-50L41.8945-38.1348L30.0293-38.1348Q28.7109-38.1348 27.9297-37.3291Q27.1484-36.5234 27.1484-35.2539Z"/>
  </g>
  <g id="Thin-S" transform="matrix(1 0 0 1 812.615 696)">
   <path class="multicolor-0:systemGreenColor hierarchical-0:secondary SFSymbolsPreview28CD41" d="M20.3125-1.12305L67.2852-1.12305Q72.5098-1.12305 75.1709-3.80859Q77.832-6.49414 77.832-11.6211L77.832-58.6914Q77.832-63.8184 75.1709-66.5283Q72.5098-69.2383 67.2852-69.2383L20.3125-69.2383Q15.0879-69.2383 12.4268-66.5771Q9.76562-63.916 9.76562-58.6914L9.76562-11.6211Q9.76562-6.44531 12.4268-3.78418Q15.0879-1.12305 20.3125-1.12305ZM20.4102-4.44336Q16.7969-4.44336 14.9414-6.29883Q13.0859-8.1543 13.0859-11.8164L13.0859-58.5449Q13.0859-62.207 14.9414-64.0625Q16.7969-65.918 20.4102-65.918L67.1875-65.918Q70.7031-65.918 72.6318-64.0625Q74.5605-62.207 74.5605-58.5449L74.5605-11.8164Q74.5605-8.1543 72.6318-6.29883Q70.7031-4.44336 67.1875-4.44336Z"/>
   <path class="multicolor-0:systemGreenColor hierarchical-1:primary SFSymbolsPreview28CD41" d="M26.8066-35.2539Q26.8066-34.5703 27.2949-34.082Q27.7832-33.5938 28.5645-33.5938L42.1387-33.5938L42.1387-19.9707Q42.1387-19.2871 42.627-18.7744Q43.1152-18.2617 43.7988-18.2617Q44.5312-18.2617 45.0439-18.75Q45.5566-19.2383 45.5566-19.9707L45.5566-33.5938L59.1309-33.5938Q59.8633-33.5938 60.376-34.082Q60.8887-34.5703 60.8887-35.2539Q60.8887-35.9863 60.4004-36.499Q59.9121-37.0117 59.1309-37.0117L45.5566-37.0117L45.5566-50.5859Q45.5566-51.3672 45.0439-51.8555Q44.5312-52.3438 43.7988-52.3438Q43.1152-52.3438 42.627-51.8311Q42.1387-51.3184 42.1387-50.5859L42.1387-37.0117L28.5645-37.0117Q27.7832-37.0117 27.2949-36.499Q26.8066-35.9863 26.8066-35.2539Z"/>
  </g>
  <g id="Ultralight-S" transform="matrix(1 0 0 1 516.35 696)">
   <path class="multicolor-0:systemGreenColor hierarchical-0:secondary SFSymbolsPreview28CD41" d="M19.7754-1.5625L66.9434-1.5625Q71.875-1.5625 74.4141-4.15039Q76.9531-6.73828 76.9531-11.5723L76.9531-58.7891Q76.9531-63.623 74.4141-66.1865Q71.875-68.75 66.9434-68.75L19.7754-68.75Q14.8438-68.75 12.3047-66.2109Q9.76562-63.6719 9.76562-58.7891L9.76562-11.5723Q9.76562-6.64062 12.3047-4.10156Q14.8438-1.5625 19.7754-1.5625ZM19.873-3.75977Q15.9668-3.75977 13.9648-5.76172Q11.9629-7.76367 11.9629-11.6699L11.9629-58.6426Q11.9629-62.5488 13.9648-64.5508Q15.9668-66.5527 19.873-66.5527L66.8457-66.5527Q70.6543-66.5527 72.7051-64.5508Q74.7559-62.5488 74.7559-58.6426L74.7559-11.6699Q74.7559-7.76367 72.7051-5.76172Q70.6543-3.75977 66.8457-3.75977Z"/>
   <path class="multicolor-0:systemGreenColor hierarchical-1:primary SFSymbolsPreview28CD41" d="M26.6113-35.2539Q26.6113-34.8145 26.9531-34.4727Q27.2949-34.1309 27.7832-34.1309L42.2363-34.1309L42.2363-19.6777Q42.2363-19.2383 42.5781-18.8965Q42.9199-18.5547 43.3105-18.5547Q43.8477-18.5547 44.1895-18.8721Q44.5312-19.1895 44.5312-19.6777L44.5312-34.1309L58.9844-34.1309Q59.4727-34.1309 59.8145-34.4727Q60.1562-34.8145 60.1562-35.2539Q60.1562-35.7422 59.8145-36.1084Q59.4727-36.4746 58.9844-36.4746L44.5312-36.4746L44.5312-50.9277Q44.5312-51.416 44.1895-51.7334Q43.8477-52.0508 43.3105-52.0508Q42.9199-52.0508 42.5781-51.709Q42.2363-51.3672 42.2363-50.9277L42.2363-36.4746L27.7832-36.4746Q27.2461-36.4746 26.9287-36.1084Q26.6113-35.7422 26.6113-35.2539Z"/>
  </g>
 </g>
</svg>
